<?xml version="1.0" encoding="UTF-8"?>
<svg width="16px" height="16px" viewBox="0 0 16 16" version="1.1" xmlns="http://www.w3.org/2000/svg" xmlns:xlink="http://www.w3.org/1999/xlink">
    <title>card selected</title>
    <g id="Page-Generation_Queue" stroke="none" stroke-width="1" fill="none" fill-rule="evenodd">
        <g id="Page_reco_edit_products" transform="translate(-797.000000, -559.000000)" fill-rule="nonzero">
            <g id="Group-18" transform="translate(797.000000, 559.000000)">
                <path d="M8,0.75 C10.0061149,0.75 11.8167657,1.56079841 13.1267604,2.87079317 C14.4399441,4.18397684 15.25,5.99854071 15.25,8 C15.25,10.0014593 14.4399441,11.8160232 13.1267604,13.1292068 C11.8167657,14.4392016 10.0061149,15.25 8,15.25 C5.99388514,15.25 4.18323435,14.4392016 2.87323959,13.1292068 C1.56005591,11.8160232 0.75,10.0014593 0.75,8 C0.75,5.99854071 1.56005591,4.18397684 2.87323959,2.87079317 C4.18323435,1.56079841 5.99388514,0.75 8,0.75 Z" id="Path" stroke="#FFFFFF" stroke-width="1.5" fill="#397EF5"></path>
                <path d="M11.979598,6.59683382 L7.89419197,10.6407636 L6.77433449,11.7606211 C6.40104866,12.1131688 5.79964371,12.1131688 5.44709599,11.739883 L4.3065004,10.6407636 L3.26959532,9.58312045 C3.10369051,9.39647754 3,9.16835842 3,8.9195012 C3,8.67064398 3.10369051,8.44252486 3.29033342,8.25588195 C3.66361925,7.90333422 4.24428609,7.90333422 4.61757192,8.25588195 L6.13145334,9.76976336 L10.6938357,5.26959532 C10.8804786,5.08295241 11.1085977,5 11.3574549,5 C11.6063122,5 11.8551694,5.10369051 12.0210742,5.26959532 C12.186979,5.45623823 12.2906695,5.68435735 12.2906695,5.93321457 C12.2491933,6.18207179 12.1662409,6.43092901 11.979598,6.59683382 Z" id="Path" fill="#FFFFFF"></path>
            </g>
        </g>
    </g>
</svg>