<?xml version="1.0" encoding="UTF-8"?>
<svg width="31px" height="31px" viewBox="0 0 31 31" version="1.1" xmlns="http://www.w3.org/2000/svg" xmlns:xlink="http://www.w3.org/1999/xlink">
    <!-- Generator: Sketch 55.2 (78181) - https://sketchapp.com -->
    <title>Content</title>
    <desc>Created with Sketch.</desc>
    <g id="Screens" stroke="none" stroke-width="1" fill="none" fill-rule="evenodd">
        <g id="Analytics_Message_Match_Optimisation_V3" transform="translate(-359.000000, -372.000000)">
            <g id="Group-36" transform="translate(293.000000, 345.000000)">
                <g id="Group-12" transform="translate(28.000000, 27.000000)">
                    <g id="Group-20">
                        <g id="Group-13" transform="translate(38.000000, 0.000000)">
                            <path d="M22.9035874,17.396536 C22.5414798,17.396536 22.1793722,17.3099362 21.8553812,17.1367366 C21.7029148,17.0501367 21.4932735,17.0501367 21.3408072,17.1367366 C21.1883408,17.2233364 21.073991,17.3618961 21.073991,17.5350957 L21.073991,21.4320875 L16.8049327,21.4320875 C16.6143498,21.4320875 16.4428251,21.5186873 16.3665919,21.674567 C16.2713004,21.8131267 16.2713004,22.0036463 16.3665919,22.142206 C16.5571749,22.4193254 16.6524664,22.7657247 16.6524664,23.094804 C16.6524664,24.1340018 15.7186099,25 14.5560538,25 C13.3934978,25 12.4596413,24.1513218 12.4596413,23.094804 C12.4596413,22.7657247 12.5549327,22.4366454 12.7455157,22.142206 C12.8408072,22.0036463 12.8408072,21.8131267 12.7455157,21.674567 C12.6502242,21.5360073 12.4786996,21.4320875 12.3071749,21.4320875 L8.0190583,21.4320875 L8.0190583,18.331814 C8.09529148,18.331814 8.20964126,18.331814 8.28587444,18.331814 C10.0011211,18.331814 11.411435,17.0501367 11.411435,15.49134 C11.411435,13.9325433 10.0011211,12.650866 8.26681614,12.650866 C8.19058296,12.650866 8.07623318,12.650866 8,12.650866 L8,9.56791249 L12.25,9.56791249 C12.440583,9.56791249 12.6121076,9.48131267 12.6883408,9.325433 C12.7836323,9.18687329 12.7836323,8.99635369 12.6883408,8.85779398 C12.4977578,8.58067457 12.4024664,8.2342753 12.4024664,7.90519599 C12.4024664,6.86599818 13.3363229,6 14.4988789,6 C15.661435,6 16.5952915,6.84867821 16.5952915,7.90519599 C16.5952915,8.2342753 16.5,8.5633546 16.309417,8.85779398 C16.2141256,8.99635369 16.2141256,9.18687329 16.309417,9.325433 C16.4047085,9.46399271 16.5762332,9.56791249 16.7477578,9.56791249 L21.073991,9.56791249 L21.073991,13.4302644 C21.073991,13.603464 21.1692825,13.7593437 21.3408072,13.8286235 C21.4932735,13.9152233 21.7029148,13.9152233 21.8553812,13.8286235 C22.1603139,13.6554239 22.5414798,13.5688241 22.9035874,13.5688241 C24.0470852,13.5688241 25,14.4175023 25,15.4740201 C25,16.5305378 24.0470852,17.396536 22.9035874,17.396536 Z" id="Path" fill="#397EF5" fill-rule="nonzero"></path>
                        </g>
                    </g>
                </g>
            </g>
        </g>
    </g>
</svg>