<?xml version="1.0" encoding="UTF-8"?>
<svg width="44px" height="44px" viewBox="0 0 44 44" version="1.1" xmlns="http://www.w3.org/2000/svg" xmlns:xlink="http://www.w3.org/1999/xlink">
    <title>Group 5</title>
    <g id="Page-Generation_Queue" stroke="none" stroke-width="1" fill="none" fill-rule="evenodd">
        <g id="Page_reco_edit_image_uploading" transform="translate(-433.000000, -472.000000)">
            <g id="Group-5" transform="translate(455.000000, 494.000000) rotate(-360.000000) translate(-455.000000, -494.000000) translate(433.000000, 472.000000)">
                <rect id="Rectangle" fill="#DFEBFF" x="0" y="0" width="44" height="44" rx="5"></rect>
                <circle id="Oval" fill="#FFFFFF" cx="11.7674419" cy="11.7674419" r="3.58139535"></circle>
                <path d="M6.49905993,23.6906653 L11.4737615,18.4777388 C13.3802022,16.4800038 16.5451619,16.4059952 18.5428969,18.3124359 C18.7087361,18.4706965 18.8634953,18.6401745 19.0060793,18.8196707 L23.8563146,24.9255374 C24.8868727,26.2228869 26.7740148,26.4391641 28.0713644,25.408606 C28.1866552,25.3170239 28.2950474,25.2170785 28.3956622,25.1095801 L29.0949332,24.3624678 C30.7002785,22.6472911 33.3920934,22.5582552 35.1072701,24.1636005 C35.1657048,24.2182934 35.2225842,24.2746246 35.2778404,24.3325268 L38.5241959,27.7343414 C39.4117674,28.6644164 39.9069767,29.9006362 39.9069767,31.1862577 L39.9069767,35.8837209 C39.9069767,37.5405752 38.563831,38.8837209 36.9069767,38.8837209 L8.11627907,38.8837209 C6.45942482,38.8837209 5.11627907,37.5405752 5.11627907,35.8837209 L5.11627907,27.1425815 C5.11627907,25.8569601 5.6114884,24.6207402 6.49905993,23.6906653 Z" id="Path-2" fill="#FFFFFF" transform="translate(22.511628, 26.604651) scale(-1, 1) translate(-22.511628, -26.604651) "></path>
            </g>
        </g>
    </g>
</svg>