<svg xmlns="http://www.w3.org/2000/svg" width="7" height="9" viewBox="0 0 7 9">
    <g fill="none" fill-opacity=".5" fill-rule="evenodd">
        <g fill="#39404B" fill-rule="nonzero">
            <g>
                <g>
                    <path d="M3.47 5.531c-.176-.174-.46-.174-.635 0l-2.7 2.7c-.13.128-.169.322-.1.49.07.169.233.279.415.28h5.4c.183 0 .348-.109.418-.278.07-.169.031-.363-.098-.492l-2.7-2.7z" transform="translate(-891 -230) translate(797 226) matrix(1 0 0 -1 94 13) matrix(1 0 0 -1 0 14.401)"/>
                    <path d="M3.47.13c-.176-.174-.46-.174-.635 0l-2.7 2.7c-.13.129-.169.322-.1.49.07.169.233.28.415.28h5.4c.183.001.348-.109.418-.277.07-.17.031-.364-.098-.493L3.47.13z" transform="translate(-891 -230) translate(797 226) matrix(1 0 0 -1 94 13)"/>
                </g>
            </g>
        </g>
    </g>
</svg>
