<?xml version="1.0" encoding="UTF-8"?>
<svg width="24px" height="24px" viewBox="0 0 24 24" version="1.1" xmlns="http://www.w3.org/2000/svg" xmlns:xlink="http://www.w3.org/1999/xlink">
    <title>stop_circle-24px</title>
    <g id="Page-Generation_Queue" stroke="none" stroke-width="1" fill="none" fill-rule="evenodd">
        <g id="Page_reco_edit_image_uploading" transform="translate(-976.000000, -482.000000)">
            <g id="stop_circle-24px" transform="translate(976.000000, 482.000000)">
                <rect id="Rectangle" x="0" y="0" width="24" height="24"></rect>
                <g id="Group" transform="translate(2.000000, 2.000000)" fill="#DE350B" fill-rule="nonzero">
                    <rect id="Rectangle" x="6" y="6" width="8" height="8"></rect>
                    <path d="M10,0 C4.48,0 0,4.48 0,10 C0,15.52 4.48,20 10,20 C15.52,20 20,15.52 20,10 C20,4.48 15.52,0 10,0 Z M10,18 C5.59,18 2,14.41 2,10 C2,5.59 5.59,2 10,2 C14.41,2 18,5.59 18,10 C18,14.41 14.41,18 10,18 Z" id="Shape"></path>
                </g>
            </g>
        </g>
    </g>
</svg>