<svg width="12" height="12" viewBox="0 0 12 12" fill="none" xmlns="http://www.w3.org/2000/svg">
<path d="M0.461502 11.9998H0.465137L4.26752 11.9702L4.26026 11.0473L1.58458 11.0684L4.58531 8.06771L3.93264 7.41504L0.931876 10.4158L0.952932 7.74009L0.0298967 7.73282L1.34311e-05 11.5352C-0.000451253 11.5961 0.0111461 11.6565 0.0341364 11.7128C0.0571267 11.7692 0.0910546 11.8205 0.133962 11.8637C0.17687 11.9069 0.227907 11.9412 0.28413 11.9645C0.340352 11.9879 0.400646 11.9999 0.461531 11.9998H0.461502Z" fill="#B6B6B6"/>
<path d="M8.06796 4.58531L11.0687 1.58455L11.0477 4.26026L11.9707 4.26753L12.0006 0.465138C12.0011 0.403923 11.9894 0.343225 11.9662 0.286576C11.9429 0.229928 11.9087 0.178462 11.8654 0.135176C11.8221 0.0918888 11.7707 0.0576462 11.714 0.0344416C11.6574 0.011237 11.5967 -0.000465941 11.5355 1.4197e-05L7.73307 0.0298975L7.74034 0.952934L10.416 0.931906L7.41528 3.93264L8.06796 4.58531Z" fill="#B6B6B6"/>
<path d="M7.74034 11.0474L7.73307 11.9702L11.5354 11.9998H11.5391C11.6 11.9999 11.6603 11.9879 11.7165 11.9645C11.7728 11.9411 11.8238 11.9069 11.8667 11.8636C11.9096 11.8204 11.9435 11.7691 11.9665 11.7127C11.9895 11.6564 12.0011 11.596 12.0006 11.5351L11.9707 7.73276L11.0477 7.74006L11.0687 10.4158L8.06795 7.41504L7.41528 8.06774L10.416 11.0685L7.74034 11.0474Z" fill="#B6B6B6"/>
<path d="M0.952962 4.26122L0.931906 1.58551L3.93267 4.58627L4.58534 3.93357L1.58461 0.932837L4.26029 0.953865L4.26755 0.0311176L0.465167 0.00146503H0.461532C0.400635 0.00140978 0.340329 0.0134178 0.284097 0.0367959C0.227865 0.0601739 0.176821 0.0944588 0.133912 0.137671C0.0910024 0.180884 0.0570776 0.232168 0.0340958 0.288563C0.0111141 0.344958 -0.000469271 0.405346 1.45543e-05 0.466242L0.0298979 4.26854L0.952962 4.26122Z" fill="#B6B6B6"/>
</svg>
