<svg width="8" height="11" viewBox="0 0 8 11" fill="none" xmlns="http://www.w3.org/2000/svg">
<path d="M5.44632 0.0454102C5.38858 0.274941 5.33725 0.504472 5.32442 0.746754C5.30517 1.28233 5.43991 1.77964 5.70937 2.24508C6.41512 3.45012 7.12086 4.66153 7.82019 5.87294C7.88435 5.98133 7.93568 6.08972 7.99984 6.19174C7.61489 6.85483 7.22993 7.51154 6.83857 8.17463C6.29963 9.09913 5.7607 10.03 5.21535 10.9545C5.18969 10.9545 5.18327 10.9417 5.17686 10.9226C5.17044 10.8716 5.18969 10.827 5.20252 10.776C5.46557 9.8196 5.24743 8.97161 4.5866 8.24476C4.1824 7.80483 3.66913 7.55617 3.07887 7.47328C2.30897 7.36489 1.62888 7.56254 1.01938 8.04073C0.910307 8.12362 0.839732 8.24476 0.711415 8.30852C0.685752 8.30852 0.67292 8.29577 0.666504 8.27664C0.974465 7.74744 1.27601 7.21825 1.58397 6.68905C2.85431 4.49576 4.12465 2.30246 5.40141 0.115545C5.41424 0.0900412 5.43349 0.0709136 5.44632 0.0454102Z" fill="#FABC04"/>
</svg>
