<?xml version="1.0" encoding="UTF-8"?>
<svg width="16px" height="11px" viewBox="0 0 16 11" version="1.1" xmlns="http://www.w3.org/2000/svg">
    <title>Group</title>
    <g id="SYMBOLS" stroke="none" stroke-width="1" fill="none" fill-rule="evenodd">
        <g id="menu-/-close" transform="translate(-19.000000, -225.000000)" fill="#397EF5" fill-rule="nonzero">
            <g id="MENU">
                <g transform="translate(16.000000, 19.000000)">
                    <g id="channels" transform="translate(3.000000, 206.000000)">
                        <g id="Group" transform="translate(0.500000, -0.000000)">
                            <path d="M11.5616558,4.41347046e-06 C11.4902442,-0.000280307063 11.4193836,0.0132131038 11.3525657,0.0398243134 L2.70103315,3.36983504 C2.46504687,3.46871955 2.22350556,3.55212841 1.97778696,3.61958584 C1.74683247,3.51088951 1.52642402,3.37875763 1.31966721,3.22505196 L0.575854783,2.7183112 C0.495755131,2.66019544 0.402094481,2.62639301 0.305065927,2.62058262 C0.123397453,2.62058262 0,2.77622443 0,3.05131227 L0,7.7567622 C0,8.0390892 0.137108282,8.20197016 0.342770704,8.20197016 C0.435111236,8.19943462 0.525099575,8.17067689 0.603276439,8.11871989 L1.30252867,7.68799024 C1.52046766,7.54618875 1.74987889,7.42506236 1.98807008,7.32603256 C2.23429698,7.39139257 2.47689536,7.47114614 2.71474398,7.56492463 L3.60937551,7.8979257 L3.38314685,8.60012362 C3.33967543,8.73033603 3.31764809,8.8674497 3.31802041,9.00551623 C3.3139697,9.54479647 3.63277975,10.0280136 4.11324845,10.2108353 L6.12874019,10.9347507 C6.25269725,10.9775202 6.38223765,10.9995046 6.51264337,10.999952 C7.03246858,11.0047076 7.49607998,10.6554376 7.66092523,10.1348242 L7.88372619,9.48330037 L11.3628488,10.7754893 C11.4279833,10.7989401 11.496269,10.8111618 11.5650836,10.8116851 C11.6893087,10.8073306 11.8062676,10.7487975 11.8881154,10.6500211 C11.9699633,10.5512446 12.0093775,10.4210619 11.9969746,10.290466 L11.9969746,0.51760846 C12.0116522,0.386260917 11.9724705,0.254550987 11.889301,0.155661353 C11.8061314,0.0567717198 11.6869037,0.000130944463 11.5616558,4.41347046e-06 Z M1.96407613,6.24377907 C1.76869683,6.24377907 1.62130543,6.26187696 1.01460128,6.60573676 L1.01460128,4.3145446 C1.56646212,4.66202398 1.7515583,4.7054589 1.97778696,4.7054589 C2.11832295,4.7054589 2.2382927,4.7054589 3.05408697,4.39055571 L8.74065295,2.20071171 L8.74065295,8.65441727 L3.04380385,6.54420395 C2.23143728,6.24377907 2.11146754,6.24377907 1.97778696,6.24377907 L1.96407613,6.24377907 Z M6.67374561,9.79096441 C6.64908633,9.86461588 6.5831937,9.91390245 6.50921567,9.91403002 L6.45780006,9.91403002 L4.43888062,9.19011465 C4.36976637,9.16319668 4.3234541,9.09415482 4.32233858,9.01637496 L4.32233858,8.95846173 L4.54513953,8.26712254 L6.87598032,9.13220142 L6.67374561,9.79096441 Z M10.9686625,9.4796808 L9.76896506,9.04895115 L9.76896506,1.8097974 L10.9686625,1.34287199 L10.9686625,9.4796808 Z"
                                  id="Shape"></path>
                            <path d="M14.5475113,5 L13.4524887,5 C13.2025861,5 13,5.1790861 13,5.4 C13,5.6209139 13.2025861,5.8 13.4524887,5.8 L14.5475113,5.8 C14.7974139,5.8 15,5.6209139 15,5.4 C15,5.1790861 14.7974139,5 14.5475113,5 L14.5475113,5 Z"
                                  id="Path"
                                  transform="translate(14.000000, 5.400000) scale(1, -1) translate(-14.000000, -5.400000) "></path>
                            <path d="M14.208597,9.36938467 L13.355351,9.05680098 C13.1868213,8.98785762 12.9696745,8.98118863 12.790635,9.03945748 C12.6115954,9.09772634 12.4998394,9.2114375 12.5,9.33517695 C12.5001609,9.45891641 12.6122122,9.57251948 12.791403,9.63061533 L13.644649,9.94319902 C13.8131787,10.0121424 14.0303255,10.0188114 14.209365,9.96054252 C14.3884046,9.90227366 14.5001606,9.7885625 14.5,9.66482305 C14.4998391,9.54108359 14.3877878,9.42748052 14.208597,9.36938467 L14.208597,9.36938467 Z"
                                  id="Path"></path>
                            <path d="M13.3731202,1.93025381 L14.2131207,1.62196026 C14.3895297,1.56466177 14.4998416,1.45261788 14.5,1.33057672 C14.5001581,1.20853557 14.390137,1.09638506 14.2138768,1.03891594 C14.0376166,0.98144681 13.8238407,0.988024269 13.6579272,1.0560214 L12.8179267,1.36871914 C12.6279057,1.42121427 12.5042396,1.53577451 12.5001068,1.66313726 C12.4959739,1.79050002 12.612111,1.90796353 12.7985772,1.96501675 C12.9850435,2.02206997 13.2086024,2.00854345 13.3731202,1.93025381 Z"
                                  id="Path"></path>
                        </g>
                    </g>
                </g>
            </g>
        </g>
    </g>
</svg>