<svg width="27" height="27" viewBox="0 0 27 27" fill="none" xmlns="http://www.w3.org/2000/svg">
<path fill-rule="evenodd" clip-rule="evenodd" d="M10.0453 18.9997C8.95353 19.0106 7.88076 18.7157 6.95003 18.1487C6.03067 17.5782 5.28403 16.7711 4.78939 15.813C4.25771 14.7943 3.98677 13.6613 4.0005 12.5139C3.98764 11.3554 4.28041 10.2137 4.84968 9.20239C5.40578 8.22379 6.21843 7.41315 7.20127 6.85662C8.20813 6.28456 9.3502 5.98912 10.5101 6.00067C12.8338 5.96717 14.9912 7.19453 16.1378 9.20239C16.7156 10.2108 17.013 11.3537 16.9996 12.5139V17.4675C17.0074 17.8622 16.8514 18.2428 16.5682 18.5199C16.285 18.797 15.8995 18.9461 15.5022 18.9323C15.1116 18.9404 14.7344 18.7916 14.4558 18.5196C14.1772 18.2476 14.021 17.8754 14.0224 17.4874C12.9358 18.4711 11.5154 19.0112 10.0453 18.9997ZM8.65343 9.16496C8.1007 9.4993 7.64861 9.97507 7.34448 10.5425V10.5375C7.0179 11.1433 6.8519 11.8218 6.8621 12.5089C6.85101 13.1914 7.01715 13.8652 7.34448 14.4654C7.65092 15.0279 8.10274 15.499 8.65343 15.8304C9.79697 16.4892 11.2081 16.4892 12.3517 15.8304C12.899 15.5011 13.3468 15.0312 13.648 14.4704C13.9689 13.8663 14.1322 13.1919 14.1229 12.5089C14.1318 11.822 13.9687 11.1437 13.648 10.535C13.1907 9.67266 12.3949 9.03643 11.4491 8.77699C10.5032 8.51754 9.49146 8.65795 8.65343 9.16496Z" fill="#397EF5"/>
<path d="M20.4986 3.9999C21.0301 4.00532 21.5405 3.79214 21.9103 3.41027C22.2915 3.04114 22.5046 2.53185 22.4999 2.00126C22.5053 1.46971 22.2922 0.959269 21.9103 0.589471C21.5379 0.212299 21.03 0 20.5 0C19.97 0 19.4621 0.212299 19.0897 0.589471C18.7078 0.959269 18.4947 1.46971 18.5001 2.00126C18.4954 2.53185 18.7085 3.04114 19.0897 3.41027C19.4588 3.79144 19.9681 4.00456 20.4986 3.9999Z" fill="#397EF5"/>
<path d="M20.4997 6.00147C20.1038 5.99122 19.7204 6.13985 19.436 6.41386C19.1451 6.69643 18.9872 7.08756 19.0008 7.49163V17.5154C19.0142 18.118 19.3848 18.6555 19.9452 18.8853C20.5056 19.1151 21.1496 18.9935 21.5863 18.5755C21.8608 18.2912 22.0093 17.9094 21.9985 17.5154V7.49163C22.0168 7.09112 21.8648 6.70143 21.5796 6.41793C21.2945 6.13444 20.9025 5.98329 20.4997 6.00147Z" fill="#397EF5"/>
<path d="M24.613 20.5414C24.3695 20.1964 24.0034 19.9991 23.6189 20.0055C23.3827 20.0155 23.1538 20.1026 22.9585 20.2569C19.9953 22.3508 16.982 23.4088 14.0045 23.4088C12.4873 23.3974 10.9801 23.1246 9.5322 22.5994C7.94506 22.0238 6.42411 21.2269 5.00272 20.2265C4.47098 19.8299 3.76625 19.9662 3.37449 20.5414C2.94769 21.1959 2.88015 22.075 3.20046 22.8066C3.35755 23.107 3.57724 23.3568 3.83936 23.5331C7.22693 25.8425 10.6526 27 14.0188 27C17.4588 27 20.863 25.8315 24.1267 23.5331C24.401 23.3737 24.6277 23.1225 24.7775 22.8121C24.9243 22.5104 25.0007 22.1695 24.9992 21.8232C25.012 21.3518 24.8745 20.8916 24.613 20.5303" fill="#397EF5"/>
</svg>
