<?xml version="1.0" encoding="UTF-8"?>
<svg width="61px" height="21px" viewBox="0 0 61 21" version="1.1" xmlns="http://www.w3.org/2000/svg">
    <!-- <title>naister</title> -->
    <g x="50%" y="50%" id="HiFi" stroke="none" stroke-width="1" fill="none" fill-rule="evenodd">
        <g id="TRIPTYQUE_PAGE_MENUOPENED" transform="translate(-75.000000, -19.000000)" fill-rule="nonzero">
            <g id="menu-/-channel-/-open-/-1-campaign-selected">
                <g id="menu-/-channel-/-open">
                    <g id="MENU" transform="translate(16.000000, 19.000000)">
                        <g id="naister" transform="translate(59.000000, 0.000000)">
                            <path class="hide" d="M6.92962982,4.54510278 C6.2608527,4.17658073 5.51278448,3.98921919 4.75514068,4.00047915 C4.19133066,3.99770439 3.63211529,4.10544927 3.10706764,4.3180159 C2.7655391,4.45785782 2.44390906,4.6449513 2.15096207,4.87418632 C2.10494021,4.69554634 2.01377089,4.53280654 1.88682395,4.40269236 C1.67648879,4.1892546 1.39070949,4.07446749 1.09626973,4.08515561 C0.806383629,4.07770661 0.525688612,4.19067986 0.316876278,4.39884343 C0.104962307,4.61411438 -0.00978161798,4.91159433 0.000654589339,5.21866558 L0.000654589339,12.8607166 C-0.00549281617,13.1632471 0.107962577,13.4552699 0.314777914,13.6692385 C0.52159325,13.8832071 0.803853289,14.0005866 1.09626973,13.9942266 C1.39315585,14.0055046 1.68087142,13.8867173 1.88868408,13.6670675 C2.08988846,13.4510329 2.19908485,13.1606292 2.19188488,12.8607166 L2.19188488,8.02838468 C2.1881646,7.68546574 2.28619994,7.34961753 2.47276414,7.06615211 C2.67428447,6.76456293 2.94881681,6.52300659 3.26889874,6.3656468 C3.62916756,6.18685767 4.02449991,6.09662607 4.42403797,6.10199508 C5.15878836,6.10199508 5.72612727,6.31176178 6.16325725,6.7409175 C6.60038723,7.17007323 6.8068614,7.80514672 6.8068614,8.65191138 L6.8068614,12.86649 C6.8068614,13.4925103 7.297385,14 7.90247654,14 C8.50756807,14 8.99809168,13.4925103 8.99809168,12.86649 L8.99809168,8.64613799 C9.0211783,7.77842511 8.83447912,6.91848098 8.45493443,6.14433331 C8.10988502,5.4659657 7.5793839,4.90774515 6.92962982,4.53932939"
                                  id="Path" fill="#231F20"></path>
                            <path class="s hide" d="M34.1597061,9.01562915 C33.616242,8.5388129 32.7354553,8.18072198 31.4686218,7.9183773 C31.0216328,7.83454654 30.5826863,7.71088072 30.1568118,7.54879684 C29.9567162,7.48227415 29.7771186,7.36344941 29.6358359,7.2041104 C29.5533814,7.08173056 29.5125586,6.93505893 29.519647,6.78665682 C29.519647,6.64878224 29.5552533,6.44580022 29.8757097,6.27537193 C30.2352595,6.10413641 30.6301083,6.02462551 31.0263544,6.04366604 C31.3828652,6.03517027 31.738414,6.0849477 32.0795504,6.19111524 C32.3762815,6.29995718 32.6475403,6.47083085 32.8760064,6.69282551 C33.1344408,6.94026329 33.4757277,7.07729171 33.8298796,7.07581044 C34.0539568,7.08344874 34.274361,7.01622018 34.4576743,6.88431797 C34.686168,6.7141765 34.8245907,6.4454319 34.8324771,6.1566466 C34.8252208,5.89503381 34.7283993,5.64430778 34.5588711,5.44812446 C34.167649,4.97254927 33.6647047,4.60621382 33.09714,4.38342634 C32.4483399,4.1214861 31.7557624,3.99139478 31.0582127,4.0004414 C30.4606952,3.99760132 29.8672178,4.10061723 29.3041354,4.30491443 C28.7734719,4.49171639 28.299896,4.81718667 27.930483,5.2489723 C27.5652867,5.69094133 27.3712732,6.25434985 27.3851449,6.83261501 C27.3851449,8.34349058 28.5320416,9.33542157 30.7939767,9.77968409 C31.5810626,9.93287807 32.1395188,10.1167108 32.4543532,10.3292675 C32.6949402,10.4606137 32.8485691,10.7132462 32.8572662,10.9918314 C32.8553444,11.2690982 32.6989865,11.5210166 32.4543532,11.6409909 C32.0381679,11.8552637 31.5740693,11.9536764 31.108811,11.9263147 C30.6786431,11.9290606 30.2521039,11.8457936 29.8532216,11.6812043 C29.5253636,11.5588979 29.228765,11.362522 28.985553,11.1067269 C28.5376636,10.6509748 28.0129397,10.5801226 27.4357433,11.0148105 C27.1606351,11.2155857 26.9984236,11.5406611 27.000972,11.8861012 C26.9889078,12.1583295 27.0895857,12.423165 27.2783261,12.6156875 C27.7519109,13.0722191 28.3200577,13.4138729 28.9405767,13.6152782 C29.6537842,13.8697852 30.4039628,13.9992709 31.1594094,13.9982632 C31.8601483,14.0168268 32.557018,13.8864088 33.2058329,13.6152782 C33.7442996,13.3867865 34.2073624,13.0053251 34.5401309,12.5161115 C34.8434688,12.052852 35.0034419,11.5070775 34.9992644,10.9497031 C35.0172281,10.2128505 34.7053739,9.50784575 34.15221,9.03477839"
                                  id="Path" fill="#231F20"></path>
                            <path class="t hide" d="M41.0589801,11.7447318 L40.5225646,11.7447318 C40.2569626,11.7439785 40.0074614,11.6062133 39.8502572,11.3735091 C39.6464539,11.0910853 39.5418608,10.7389892 39.5552286,10.3803424 L39.5552286,6.36880423 L40.6673968,6.36880423 C40.9264136,6.37837512 41.1788168,6.27879884 41.3718892,6.09087305 C41.5557806,5.90878145 41.6592476,5.64989622 41.6561894,5.3795247 C41.6655406,5.09769184 41.5617951,4.82534376 41.3718892,4.63319202 C41.1788334,4.44543911 40.9262573,4.34649144 40.6673968,4.35720441 L39.5552286,4.35720441 L39.5552286,2.12986781 C39.5653184,1.82749248 39.4593605,1.53415645 39.2626981,1.32002001 C39.0660358,1.10588356 38.7963551,0.990204464 38.5181586,1.0006509 C38.240267,0.991366618 37.971216,1.10741924 37.7747936,1.32129442 C37.5783711,1.53516961 37.4720686,1.82782189 37.4810886,2.12986781 L37.4810886,4.35720441 L36.9893744,4.35720441 C36.7304847,4.34628614 36.4778399,4.44526072 36.284882,4.63319202 C36.0949761,4.82534376 35.9912306,5.09769184 36.0005818,5.3795247 C35.9951657,5.65040618 36.0990385,5.91030672 36.284882,6.09087305 C36.477563,6.27950858 36.730239,6.37919249 36.9893744,6.36880423 L37.4810886,6.36880423 L37.4810886,10.3803424 C37.4729168,11.0176019 37.6079472,11.6474009 37.87446,12.2150769 C38.1256813,12.7482008 38.5042823,13.1979985 38.9705357,13.517272 C39.4345918,13.8365375 39.9733828,14.0038674 40.5225646,13.9992785 L40.8104409,13.9992785 C41.1123856,14.0099675 41.4076981,13.9015874 41.641885,13.6941373 C41.8704325,13.4939164 42.0021689,13.1910594 41.9994953,12.8720052 C42.0077467,12.5795666 41.914566,12.294441 41.7384398,12.073196 C41.5717394,11.8630136 41.3285801,11.7429378 41.0732845,11.7447318"
                                  id="Path" fill="#231F20"></path>
                            <path class="e hide" d="M47.6718961,5.98694728 C48.2558276,5.95752282 48.8259824,6.17787519 49.250474,6.59703309 C49.6113819,6.97448909 49.8549927,7.4564738 49.9496111,7.98027798 L45.0979676,7.98027798 C45.3721383,6.74743988 46.4627242,5.90345935 47.6737359,5.98694728 M49.9808883,4.61905046 C49.2812463,4.1950563 48.4827221,3.98124461 47.6737359,4.00129061 C46.8306034,3.98785426 45.999278,4.20904296 45.2653926,4.64207257 C44.5582286,5.06332142 43.9797252,5.68452019 43.5966627,6.43395984 C43.1929137,7.22601708 42.9878521,8.11169744 43.0005563,9.00859873 C42.9883274,9.90875425 43.2061413,10.7960761 43.6316196,11.5794006 C44.048016,12.3316401 44.6570541,12.948121 45.3905013,13.3597768 C46.6816518,14.0760893 48.2011406,14.1971152 49.5816442,13.6935974 C50.1061577,13.5202367 50.5979147,13.2534586 51.0351135,12.9050902 C51.2627863,12.7420532 51.4000736,12.473632 51.4030804,12.1856494 C51.3763507,11.6129845 50.9188574,11.165638 50.3690934,11.1745952 C50.1144575,11.1700838 49.8661579,11.2575193 49.6662766,11.4220829 C49.4216706,11.6078952 49.1494209,11.7504891 48.8604291,11.8441548 C48.5578504,11.9562713 48.2395306,12.015267 47.9184339,12.0187391 C47.2129325,12.0401959 46.5228511,11.8010119 45.9700492,11.343424 C45.5234962,10.970135 45.2088883,10.4523924 45.0758896,9.87192771 L50.996477,9.87192771 C51.2610188,9.88033466 51.5176614,9.77729861 51.7084929,9.58606989 C51.8997918,9.39917885 52.0055417,9.13606169 51.9991867,8.86279205 C52.0135827,7.99729193 51.8366822,7.13995604 51.4821933,6.35721949 C51.1512861,5.64257313 50.6292755,5.042941 49.9790485,4.63056151"
                                  id="Shape" fill="#231F20"></path>
                            <path class="r hide" d="M60.3501139,4.30729013 C59.8723298,4.08418528 59.3483933,3.97990056 58.8223217,4.00319722 C58.2344099,4.00040253 57.652783,4.12511834 57.1169237,4.36887857 C56.7869097,4.51876856 56.4785508,4.71299637 56.2002483,4.94627018 C56.1066711,4.40737135 55.7228133,4.10327843 55.1155159,4.10327843 C54.8156809,4.08774766 54.5225397,4.19618712 54.3038763,4.40352207 C54.096265,4.62372987 53.9872195,4.92003218 54.0021373,5.22341815 L54.0021373,12.8815555 C53.9831104,13.1880743 54.0917733,13.4887053 54.3019666,13.7110748 C54.522965,13.9106501 54.8134651,14.0137758 55.1097867,13.997846 C55.4139327,14.0170214 55.7122366,13.9075108 55.9328847,13.6956777 C56.1309151,13.4729552 56.2332425,13.1801889 56.217436,12.8815555 L56.217436,7.87749492 C56.1986031,7.35615569 56.442993,6.86066533 56.8667477,6.56104205 C57.3174464,6.220381 57.9285633,6.04716352 58.6848204,6.04716352 C59.0387193,6.0570666 59.3912516,6.09568427 59.738997,6.16264184 C59.8393433,6.18558313 59.9416933,6.19847668 60.0445554,6.20113461 C60.4874421,6.21814261 60.8779424,5.91078587 60.9688697,5.47362119 C60.992326,5.39241603 61.0026435,5.30793191 60.9994255,5.22341815 C60.9994255,4.96359193 60.8867509,4.59598594 60.3520236,4.30729013"
                                  id="Path" fill="#231F20"></path>
                            <path class="a" d="M13.5726756,7.49420873 C13.8066246,7.05774676 14.1543855,6.69177024 14.5795613,6.43458277 C15.2242029,6.04457488 16.0024687,5.93656846 16.7300427,6.13614257 C17.4576167,6.33571668 18.069787,6.82512084 18.421574,7.48844989 C18.6681977,7.9566756 18.7937185,8.47847226 18.7868357,9.00686318 C18.7939864,9.53222338 18.6684033,10.0509792 18.421574,10.5156784 C18.1898765,10.9470975 17.8453849,11.3085045 17.4243514,11.5618671 C16.5447076,12.0686124 15.459205,12.0686124 14.5795613,11.5618671 C14.1559567,11.306949 13.8084019,10.9445025 13.5726756,10.5118392 C13.3208821,10.0501722 13.1930881,9.53185391 13.2016161,9.00686318 C13.1937709,8.47828293 13.3214636,7.9564122 13.5726756,7.4903695 M13.2692571,13.3451868 C13.9852034,13.7813116 14.8104042,14.0081802 15.6502228,13.9997746 C16.7811031,14.0085929 17.8736727,13.5931495 18.7095317,12.8364896 C18.7084251,13.134948 18.8286295,13.4212192 19.0429122,13.6304481 C19.2571949,13.8396769 19.5474192,13.9541543 19.8478342,13.9479451 C20.1534325,13.9585502 20.4499666,13.8438226 20.6678277,13.6306936 C20.8856888,13.4175645 21.0056911,13.1248031 20.999665,12.8211327 L20.999665,9.0107024 C21.0099958,8.11823426 20.7812184,7.23908811 20.3367825,6.46337695 C19.4547683,4.91886699 17.795261,3.97474332 16.0077541,4.00051444 C15.115535,3.9916332 14.2370263,4.2188945 13.4625173,4.65894144 C12.7064878,5.08703747 12.0813669,5.71061026 11.6536019,6.46337695 C11.2156987,7.24127796 10.9904906,8.11951021 11.0003824,9.0107024 C10.9898193,9.89327088 11.1982348,10.7648421 11.6072194,11.5484298 C11.9877137,12.28544 12.5620569,12.9063376 13.2692571,13.3451868"
                                  id="Shape" fill="#397EF5"></path>
                            <path class="point" d="M23.998962,2.99992425 C24.3975984,3.00399177 24.7804013,2.84410501 25.057732,2.55770362 C25.3435896,2.28085347 25.5034208,1.89888491 25.4999243,1.50094164 C25.5039915,1.10227956 25.344115,0.71945211 25.057732,0.442103517 C24.7784482,0.159224176 24.3975046,0 24,0 C23.6024954,0 23.2215518,0.159224176 22.942268,0.442103517 C22.655885,0.71945211 22.4960085,1.10227956 22.5000757,1.50094164 C22.4965792,1.89888491 22.6564104,2.28085347 22.942268,2.55770362 C23.2191003,2.84357959 23.6010443,3.00342105 23.998962,2.99992425"
                                  id="Path" fill="#397EF5"></path>
                            <path class="i" d="M23.9997779,4.00113101 C23.7358416,3.993245 23.4802504,4.10758004 23.2906426,4.31835245 C23.0967476,4.53571231 22.9914667,4.83658667 23.0005418,5.1474097 L23.0005418,12.8580314 C23.0094524,13.3215021 23.256522,13.7350334 23.6301152,13.911776 C24.0037084,14.0885186 24.4330636,13.9949962 24.7241817,13.6734656 C24.9072305,13.4548005 25.0062247,13.1610823 24.9990141,12.8580314 L24.9990141,5.1474097 C25.0112075,4.83932216 24.9098525,4.53956362 24.7197515,4.32148841 C24.5296506,4.1034132 24.2683446,3.9871432 23.9997779,4.00113101"
                                  id="Path" fill="#397EF5"></path>
                            <path class="smile"  d="M26.7009357,16.3867038 C26.5127679,16.1403151 26.2299206,15.9993656 25.9327665,16.0039067 L25.9327665,16.0039067 C25.7502783,16.0110608 25.5733918,16.0733054 25.4224958,16.1834662 C23.1327252,17.6791371 20.8042699,18.4348652 18.5034465,18.4348652 C17.3311147,18.4266901 16.1664331,18.2318456 15.047606,17.8567233 C13.8211828,17.4455399 12.6459004,16.8763886 11.5475545,16.1617612 C11.1366648,15.8784778 10.5921015,15.9758373 10.289378,16.3867038 C9.95957791,16.8542003 9.90738668,17.482164 10.1549023,18.0047119 C10.2762915,18.2192541 10.44605,18.3976967 10.6485938,18.5236584 C13.266264,20.1732373 15.9134083,21 18.5144993,21 C21.1726963,21 23.8032614,20.1653446 26.3251407,18.5236584 C26.5371253,18.4097868 26.7123188,18.2303789 26.8280429,18.0086582 C26.941524,17.7931552 27.0005732,17.5496768 26.9993612,17.3022596 C27.0092966,16.9656066 26.903051,16.6368401 26.7009357,16.3788111"
                                  id="Path" fill="#397EF5"></path>
                        </g>
                    </g>
                </g>
            </g>
        </g>
    </g>
</svg>