<svg xmlns="http://www.w3.org/2000/svg" width="110.833" height="134.875" viewBox="0 0 110.833 134.875">
    <defs>
        <style>
            .a{fill:#397ef5;}.b{fill:#fff;}.c{fill:#f5f5f5;}.d{fill:#fab025;}.e{fill:#0366fd;}.f{fill:#dddfe3;}.g{fill:#fd8b03;}.h{fill:#fdfdfd;}
        </style>
    </defs>
    <path class="a"
          d="M1437.122,0c5.183,1.933,10.626,2.921,15.942,4.375,6.909,1.89,13.861,3.631,20.808,5.384a3.442,3.442,0,0,1,2.389,1.722q3.75,6.548,7.652,13.007a3.158,3.158,0,0,1,.341,2.691q-6.636,25.428-13.166,50.884c-.456,1.8-1.218,1.738-2.627,1.372q-18.545-4.821-37.111-9.557c-3.481-.925-6.952-1.887-10.446-2.757-1.324-.33-1.757-.822-1.361-2.283,1.6-5.893,3.052-11.825,4.56-17.742,1.61-6.131,3.246-12.256,4.823-18.4q3.683-14.342,7.307-28.7Zm-3.181,51.624q16.6,4.4,33.2,8.782c.4.106.955.287,1.075-.347.138-.725-.484-.781-.984-.911-3.435-.888-6.881-1.736-10.3-2.68-6.044-1.669-12.21-2.884-18.156-4.915,4.855-.825,8.754-3.413,12.328-6.637,1.924-1.735,3.865-3.455,5.88-5.083a17.251,17.251,0,0,1,13.712-3.774c.878.121,1.743.323,2.617.477.42.074.931.262,1.077-.367.159-.686-.469-.607-.84-.739a8.571,8.571,0,0,0-1.072-.274,18.774,18.774,0,0,0-16.63,4.048c-2.86,2.348-5.573,4.878-8.457,7.2a17.63,17.63,0,0,1-16.3,3.334c.179-.717.355-1.435.539-2.151l5.261-20.388c.138-.538.6-1.215-.161-1.555-.724-.325-.807.381-.93.867Q1432.89,38,1429.989,49.487c-.464.632-.61,1.141.411,1.345C1431.585,51.07,1432.761,51.358,1433.941,51.624Zm25.523-33.934c-.059-.455-.424-.641-.872-.757L1440,12.11c-.4-.1-.917-.319-1.117.272-.19.559.241.8.688.913q9.4,2.448,18.811,4.875c.413.1.9.231,1.084-.48ZM1447.21,60.815c-.039-.613-.5-.667-.927-.777-1.428-.363-2.851-.743-4.277-1.11q-6.522-1.687-13.05-3.363c-.526-.134-1.272-.528-1.421.387-.119.739.7.631,1.119.765,1.122.355,2.274.613,3.416.9l13.479,3.465C1446.152,61.245,1446.811,61.746,1447.21,60.815Zm11.363-47.8c.436.074.915.26,1.093-.363.194-.68-.4-.689-.785-.789q-8.863-2.341-17.735-4.649c-.437-.114-.93-.209-1.086.378s.33.724.762.836Q1449.7,10.719,1458.573,13.012Zm-17.529,51.463c0-.562-.34-.71-.7-.8q-6.537-1.685-13.076-3.364c-.387-.1-.73-.166-.912.285-.246.609.161.751.628.872,4.354,1.139,8.7,2.292,13.06,3.422C1440.485,65.006,1440.94,64.992,1441.044,64.475Z"
          transform="translate(-1373.573)"/>
    <path class="b"
          d="M37.711,1431.65c.858,1.088.768,2.662,1.859,3.631q-.012,1.095-.023,2.19l-1.181.969c-1.186-.1-2.357-.309-2.777,1.343-1.1,4.339-2.263,8.665-3.446,12.984-.438,1.6.129,2.228,1.721,2.072.914,3.333,1.9,6.649,2.712,10.007.363,1.508,1.016,1.851,2.46,1.458,3.48-.947,6.991-1.778,10.49-2.655,2.731-.685,2.731-.684,1.786-3.449,2.739-.1,5.146,1.307,7.771,1.726q2.9,10.877,5.791,21.754c.284,1.065.581,2.127.872,3.19-.858,0-1.264.61-1.706,1.209-1.169,1.586-2.433,3.106-3.527,4.741-2.184,3.263-5.065,6.034-6.771,9.631-5.678,1.821-11.491,3.138-17.256,4.634-5.411,1.4-10.811,2.854-16.226,4.247-2.8.72-2.993.609-3.69-2.076-2.422-9.336-4.806-18.682-7.224-28.02q-4.124-15.93-8.3-31.846c-.165-.627.077-1.613-1.047-1.684v-2.224q11.753-2.993,23.5-5.991c2.919-.749,5.8-1.685,8.747-2.283,1.463-.3,1.206-.781.64-1.63C34.239,1433.954,36.119,1432.977,37.711,1431.65Zm-3.505,55.179a15.7,15.7,0,0,0,15.5-17.136c-.177-1.653-.565-2.5-2.546-1.888-3.6,1.112-7.3,1.9-10.906,2.973-1.533.456-2.187.273-2.562-1.432-.81-3.681-2-7.281-2.774-10.967-.438-2.075-1.319-2.043-2.91-1.346-6.467,2.831-10.461,10.17-9.112,16.879,1.547,7.68,7.742,12.906,15.313,12.917Zm-13.694,12.081c.154-.032.518-.1.875-.192q8.13-2.133,16.257-4.28c.574-.152,1.609-.028,1.321-1.006-.211-.717-1.017-.257-1.55-.119q-6.959,1.808-13.909,3.645c-1.14.3-2.282.6-3.42.906-.387.106-.668.314-.5.787C19.718,1499.012,20,1499,20.512,1498.909Zm1.408,4.846c4.168-1.091,8.513-2.225,12.855-3.372.335-.088.787-.179.708-.67-.1-.638-.6-.534-1.033-.424q-6.522,1.684-13.038,3.394c-.342.09-.738.241-.588.746S21.378,1503.8,21.921,1503.755Z"
          transform="translate(0 -1385.426)"/>
    <path class="c"
          d="M998.747,1463.57l.023-2.19,10.954-2.76c-1.508,5.917-2.963,11.849-4.56,17.742-.4,1.461.037,1.954,1.361,2.283,3.494.87,6.966,1.832,10.446,2.757-.011,2.3,1.162,4.359,1.311,6.623-2.625-.42-5.032-1.821-7.771-1.726-3.05-5.656-7.652-8.879-14.194-8.976-3.756-.055-3.757-.014-3.252,3.614-1.593.157-2.159-.474-1.721-2.073,1.182-4.319,2.342-8.644,3.446-12.984.42-1.652,1.59-1.44,2.777-1.343.238,1.362,1.324,1.371,2.522,1.741C999.619,1465.156,999.755,1464.089,998.747,1463.57Z"
          transform="translate(-959.199 -1411.525)"/>
    <path class="d"
          d="M1698.16,2913.47c1.739-2.705,3.495-5.4,5.206-8.124.372-.593,1.046-1.072.907-1.918l-.051,0c.365.066.469-.185.556-.458l5.988-8.854c3.148-4.389,5.777-9.132,9.144-13.371l5.64,3.721q-6.471,9.809-12.945,19.617-3.8,5.736-7.657,11.432c-.433.638-.659,1.547-1.646,1.661C1701.614,2915.909,1700.12,2914.366,1698.16,2913.47Z"
          transform="translate(-1643.332 -2787.739)"/>
    <path class="c"
          d="M1678.241,3146.886l-5.988,8.854-.556.458.051,0c-2.531-.27-4.707,1.384-7.2,1.335,1.705-3.6,4.587-6.367,6.771-9.63,1.094-1.635,2.357-3.156,3.527-4.741.442-.6.848-1.214,1.706-1.209C1677.216,3143.561,1676.956,3145.488,1678.241,3146.886Z"
          transform="translate(-1610.807 -3040.505)"/>
    <path class="e"
          d="M2377.421,2750.033l-5.64-3.721a33.532,33.532,0,0,1,1.835-2.974,3.494,3.494,0,0,1,5.835,3.838C2378.868,2748.182,2378.1,2749.084,2377.421,2750.033Z"
          transform="translate(-2295.202 -2653.301)"/>
    <path class="f"
          d="M1654.274,3894.16c1.96.9,3.455,2.438,5.142,3.711a13.33,13.33,0,0,1-4.8,3.593l-1.808-1.181A26.211,26.211,0,0,1,1654.274,3894.16Z"
          transform="translate(-1599.446 -3768.429)"/>
    <path class="e"
          d="M1634.393,4083.791l1.808,1.181a6.493,6.493,0,0,1-2.422,1.841A6.409,6.409,0,0,1,1634.393,4083.791Z"
          transform="translate(-1581.03 -3951.937)"/>
    <path class="d"
          d="M1737.769,1088.634a17.63,17.63,0,0,0,16.3-3.334c2.883-2.319,5.6-4.848,8.457-7.2a18.774,18.774,0,0,1,16.63-4.048,8.63,8.63,0,0,1,1.072.274c.369.132,1,.053.839.739-.146.629-.656.441-1.077.367-.874-.153-1.74-.355-2.617-.477a17.251,17.251,0,0,0-13.712,3.774c-2.015,1.627-3.957,3.348-5.88,5.083-3.573,3.223-7.473,5.812-12.326,6.636l-4.835.07c-1.18-.266-2.357-.554-3.541-.791-1.021-.2-.875-.713-.411-1.346Z"
          transform="translate(-1680.252 -1038.898)"/>
    <path class="f"
          d="M1869.72,1596.79l4.835-.07c5.944,2.032,12.11,3.247,18.154,4.916,3.42.944,6.865,1.792,10.3,2.68.5.129,1.122.186.984.911-.12.633-.675.452-1.075.347Q1886.316,1601.193,1869.72,1596.79Z"
          transform="translate(-1809.352 -1545.166)"/>
    <path class="f"
          d="M1748.411,815.792l-1.1-.249q2.9-11.489,5.809-22.979c.123-.484.206-1.192.93-.867.759.341.3,1.018.161,1.555q-2.625,10.2-5.261,20.388C1748.765,814.357,1748.592,815.075,1748.411,815.792Z"
          transform="translate(-1690.895 -766.056)"/>
    <path class="f"
          d="M2041.886,376.853c-.187.71-.671.585-1.085.478q-9.409-2.422-18.811-4.875c-.447-.117-.878-.354-.688-.913.2-.591.72-.375,1.117-.272q9.3,2.4,18.594,4.823C2041.462,376.211,2041.827,376.4,2041.886,376.853Z"
          transform="translate(-1955.995 -359.164)"/>
    <path class="f"
          d="M1690.671,1720.279c-.4.931-1.058.43-1.66.275q-6.739-1.735-13.479-3.465c-1.141-.293-2.292-.549-3.416-.9-.423-.134-1.238-.026-1.119-.765.148-.917.894-.523,1.421-.387q6.529,1.664,13.049,3.363c1.426.369,2.85.747,4.277,1.11C1690.176,1719.612,1690.632,1719.666,1690.671,1720.279Z"
          transform="translate(-1617.034 -1659.464)"/>
    <path class="f"
          d="M2076.864,226.532q-8.875-2.292-17.75-4.588c-.433-.112-.92-.239-.762-.836s.649-.492,1.086-.378q8.87,2.317,17.734,4.649c.382.1.979.109.785.789C2077.78,226.794,2077.3,226.607,2076.864,226.532Z"
          transform="translate(-1991.864 -213.521)"/>
    <path class="f"
          d="M1647.154,1869.925c-.1.517-.558.53-1,.415-4.355-1.133-8.706-2.285-13.06-3.422-.468-.122-.875-.265-.628-.872.182-.452.524-.385.912-.285q6.535,1.691,13.076,3.364C1646.814,1869.217,1647.158,1869.363,1647.154,1869.925Z"
          transform="translate(-1579.683 -1805.45)"/>
    <path class="d"
          d="M247.037,530.709c-1.594,1.327-3.473,2.3-4.823,3.928-.7.011-1.023-.531-1.4-.969q-12.029-13.894-24.042-27.805a5.362,5.362,0,0,1-.462-.748l5.177-4.466c5.9,6.83,11.842,13.627,17.688,20.505C241.845,524.3,244.817,527.2,247.037,530.709Z"
          transform="translate(-209.326 -484.485)"/>
    <path class="e"
          d="M127.706,384.415l-5.177,4.467a33.981,33.981,0,0,1-2.464-2.8,3.428,3.428,0,0,1,.638-4.732,3.338,3.338,0,0,1,4.6.212A28.483,28.483,0,0,1,127.706,384.415Z"
          transform="translate(-115.545 -368.251)"/>
    <path class="d"
          d="M592.732,2234.782c-7.572-.011-13.767-5.237-15.311-12.917-1.349-6.708,2.644-14.048,9.112-16.879,1.591-.7,2.472-.729,2.91,1.346.778,3.687,1.964,7.286,2.774,10.967.375,1.7,1.029,1.888,2.562,1.432,3.611-1.074,7.308-1.861,10.906-2.973,1.981-.613,2.369.236,2.546,1.888A15.7,15.7,0,0,1,592.732,2234.782Z"
          transform="translate(-558.524 -2133.379)"/>
    <path class="g"
          d="M1041.913,2041.254c-.5-3.627-.5-3.668,3.252-3.614,6.542.1,11.144,3.318,14.194,8.976.945,2.765.945,2.764-1.786,3.448-3.5.877-7.01,1.708-10.49,2.656-1.444.393-2.1.05-2.46-1.458C1043.815,2047.9,1042.828,2044.587,1041.913,2041.254Z"
          transform="translate(-1008.046 -1971.841)"/>
    <path class="e"
          d="M606.12,3338.885c-.51.094-.795.1-.923-.258-.169-.474.109-.681.5-.787,1.138-.31,2.279-.606,3.42-.906q6.954-1.827,13.909-3.645c.531-.138,1.337-.6,1.55.118.288.978-.747.853-1.321,1.006q-8.124,2.156-16.256,4.28C606.638,3338.787,606.274,3338.852,606.12,3338.885Z"
          transform="translate(-585.608 -3225.403)"/>
    <path class="e"
          d="M645.153,3528.579c-.542.047-.947.171-1.094-.326s.245-.656.588-.746q6.514-1.714,13.036-3.395c.427-.11.931-.214,1.033.424.078.491-.373.581-.708.67C653.666,3526.354,649.32,3527.488,645.153,3528.579Z"
          transform="translate(-623.232 -3410.25)"/>
    <path class="e" d="M1189.521,1611.92c1.007.52.872,1.587,1.341,2.71-1.2-.37-2.284-.38-2.522-1.741Z"
          transform="translate(-1149.972 -1559.876)"/>
    <path class="h" d="M1885.9,3569.548l.556-.458C1886.369,3569.363,1886.265,3569.614,1885.9,3569.548Z"
          transform="translate(-1825.01 -3453.854)"/>
</svg>