<?xml version="1.0" encoding="UTF-8"?>
<svg width="156" height="165" viewBox="0 0 156 165" fill="none" xmlns="http://www.w3.org/2000/svg">
<path d="M146.104 85.2422C142.918 85.2422 139.949 86.9662 138.415 89.652L134.958 95.1879V54.0958C134.958 49.1745 130.957 45.1728 126.033 45.1728C124.615 45.1728 123.288 45.5354 122.093 46.1271C120.903 42.5315 117.457 39.9043 113.351 39.9043C108.946 39.9043 105.261 42.907 104.348 46.9006C103.364 46.5469 102.321 46.351 101.254 46.351C96.16 46.351 92.0176 50.4973 92.0176 55.5931V63.0781C91.3038 62.8261 90.5633 62.6442 89.7834 62.6035C85.4256 62.3897 81.6011 65.7843 81.3695 70.2806L80.5743 95.7703H80.5959C79.9763 107.39 80.1074 118.255 81.054 128.869C81.0832 129.168 81.1646 129.45 81.2893 129.714C82.0451 135.525 84.6012 140.997 88.5785 145.315V161.553C88.5785 163.063 89.8037 164.288 91.314 164.288H122.263C123.774 164.288 124.999 163.063 124.999 161.553V149.985C128.091 147.986 130.808 145.379 132.923 142.364C133.588 141.582 134.16 140.764 134.621 139.927C134.634 139.906 134.647 139.881 134.658 139.86C134.915 139.389 135.137 138.895 135.278 138.521L153.438 99.2596C154.485 97.7608 155.036 96.0076 155.036 94.173C155.032 89.2465 151.027 85.2412 146.104 85.2412L146.104 85.2422ZM148.872 96.2311C148.758 96.3838 148.659 96.5479 148.578 96.7235L130.247 136.366C130.125 136.68 129.991 136.99 129.833 137.275C129.821 137.296 129.809 137.317 129.799 137.338C129.504 137.861 129.131 138.385 128.69 138.896C128.626 138.971 128.567 139.048 128.509 139.127C126.539 141.967 123.912 144.364 120.912 146.068C120.054 146.553 119.525 147.461 119.525 148.448V158.819L94.0507 158.82V144.218C94.0507 143.495 93.7619 142.797 93.2504 142.283C89.4982 138.53 87.1508 133.562 86.6345 128.292C86.6091 128.026 86.5378 127.772 86.4322 127.534C85.5276 116.867 85.4309 105.943 86.1472 94.1646C86.1587 93.9699 86.1472 93.7778 86.118 93.5933L86.8126 71.9372L86.8419 70.4829C86.9132 69.0859 88.0532 68.0172 89.51 68.0757C90.7645 68.1393 91.7976 69.1267 91.9134 70.3697L92.0215 70.3583V90.7561C92.0215 90.9712 92.0508 91.1773 92.1004 91.3796C92.0889 91.4686 92.0711 91.5526 92.0711 91.6442V97.1762C92.0711 98.6864 93.2964 99.9116 94.8092 99.9116C96.3194 99.9116 97.5446 98.6864 97.5446 97.1762V91.6442C97.5446 91.4292 97.5141 91.2231 97.4657 91.0208C97.4747 90.9317 97.4937 90.8477 97.4937 90.7561V55.5953C97.4937 53.5163 99.1834 51.8255 101.259 51.8255C102.39 51.8255 103.409 52.3471 104.123 53.2098V87.5465C104.123 87.5504 104.124 87.5542 104.124 87.558C104.124 87.5593 104.123 87.5631 104.123 87.5669V94.9414C104.123 96.4516 105.348 97.6769 106.858 97.6769C108.368 97.6769 109.594 96.4516 109.594 94.9414V87.5669C109.594 87.5631 109.592 87.5593 109.592 87.558C109.592 87.5542 109.594 87.5504 109.594 87.5465L109.595 48.8256C109.595 46.9235 111.282 45.375 113.356 45.375C115.425 45.375 117.106 46.9234 117.106 48.8256V92.8133C117.106 94.3236 118.331 95.5488 119.841 95.5488C121.351 95.5488 122.577 94.3236 122.577 92.8133V54.0924C122.577 52.1903 124.13 50.6418 126.037 50.6418C127.942 50.6418 129.49 52.1902 129.49 54.0924V102.474C118.548 105.296 109.491 113.448 105.596 124.142C105.079 125.563 105.81 127.135 107.231 127.65C107.542 127.761 107.857 127.815 108.169 127.815C109.285 127.815 110.336 127.127 110.739 126.016C114.181 116.566 122.404 109.474 132.226 107.452C133.151 107.452 134.039 106.998 134.548 106.183L143.113 92.4567C143.73 91.3791 144.877 90.7111 146.107 90.7111C148.013 90.7111 149.565 92.2633 149.565 94.1692C149.56 94.9161 149.324 95.6286 148.873 96.2278L148.872 96.2311Z" fill="#CDDDFF"/>
<path d="M75.4238 95.7691L74.6579 71.8216L74.621 70.1969C74.5116 68.0606 73.5764 66.0948 71.9847 64.661C70.3956 63.2271 68.3676 62.5032 66.2121 62.605C65.4309 62.6431 64.6904 62.8251 63.9791 63.0795V55.5946C63.9791 50.4988 59.8351 46.3525 54.7409 46.3525C53.6734 46.3525 52.6288 46.542 51.6453 46.8958C50.7293 42.9031 47.0472 39.9043 42.6462 39.9043C38.5406 39.9043 35.0912 42.5304 33.9001 46.1261C32.7067 45.5357 31.3834 45.1718 29.9635 45.1718C25.0423 45.1718 21.037 49.1732 21.037 54.0948V95.1902L17.6349 89.7432C16.0496 86.967 13.0837 85.2393 9.8917 85.2393C4.96918 85.2393 0.963867 89.2446 0.963867 94.1697C0.963867 96.0069 1.51605 97.7591 2.56189 99.2564L20.6583 138.368C20.8695 138.906 21.1048 139.433 21.3784 139.925C21.8402 140.763 22.4102 141.582 23.0769 142.362C25.189 145.375 27.9053 147.983 31.0009 149.983V161.551C31.0009 163.061 32.2249 164.287 33.7364 164.287L64.6844 164.288C66.196 164.288 67.4199 163.063 67.4199 161.552V145.315C71.3832 141.008 73.9394 135.556 74.7026 129.766C74.8298 129.489 74.9125 129.186 74.9392 128.873C75.8896 118.264 76.0245 107.398 75.4011 95.7737L75.424 95.7724L75.4238 95.7691ZM69.5685 127.491C69.4629 127.744 69.3929 128.011 69.3662 128.29C68.8496 133.56 66.5009 138.524 62.7489 142.28C62.2362 142.793 61.9487 143.491 61.9487 144.215V158.818H36.4742V148.447C36.4742 147.46 35.9437 146.551 35.0874 146.067C32.0847 144.363 29.4587 141.966 27.4917 139.13C27.4358 139.047 27.3747 138.969 27.3072 138.894C26.853 138.371 26.4701 137.829 26.166 137.273C26.0095 136.988 25.8759 136.683 25.6901 136.223L7.42082 96.7199C7.34067 96.5443 7.24015 96.3789 7.12564 96.225C6.67652 95.6283 6.43985 94.9158 6.43985 94.1689C6.43985 92.2604 7.99081 90.7108 9.89666 90.7108C11.1283 90.7108 12.2734 91.3788 12.9413 92.548L21.4545 106.183C21.9647 106.996 22.8503 107.449 23.7753 107.451C33.5975 109.469 41.8218 116.563 45.2623 126.014C45.6669 127.124 46.7165 127.813 47.8337 127.813C48.1441 127.813 48.4609 127.759 48.7688 127.649C50.1875 127.132 50.9216 125.561 50.4037 124.14C46.5079 113.446 37.4514 105.294 26.5097 102.472V54.0939C26.5097 52.1918 28.0606 50.6433 29.9639 50.6433C31.8698 50.6433 33.422 52.1917 33.422 54.0939V92.8148C33.422 94.325 34.6459 95.5503 36.1574 95.5503C37.669 95.5503 38.8929 94.325 38.8929 92.8148V48.8271C38.8929 46.925 40.5762 45.3765 42.6461 45.3765C44.7188 45.3765 46.4058 46.9249 46.4058 48.8271V87.548V87.5595V87.5684V94.9429C46.4058 96.4531 47.6298 97.6783 49.1413 97.6783C50.6528 97.6783 51.8768 96.4531 51.8768 94.9429V87.5684V87.5595V87.548L51.8793 53.2112C52.5931 52.3575 53.6288 51.8244 54.7434 51.8244C56.8211 51.8244 58.5093 53.5153 58.5093 55.5942V90.7518C58.5093 90.8409 58.5271 90.9274 58.5347 91.0126C58.4876 91.2149 58.4558 91.4236 58.4558 91.6399V97.1718C58.4558 98.6821 59.6798 99.9073 61.1913 99.9073C62.7028 99.9073 63.9268 98.6821 63.9268 97.1718V91.6399C63.9268 91.5508 63.909 91.4643 63.8988 91.3791C63.9459 91.1768 63.9777 90.9681 63.9777 90.7518L63.979 70.3565L64.0871 70.368C64.2042 69.1237 65.236 68.1376 66.4893 68.074C67.1738 68.0244 67.815 68.2712 68.3188 68.7254C68.8227 69.1809 69.1191 69.8056 69.1522 70.396L69.8787 93.5865C69.8495 93.7761 69.8406 93.9682 69.8507 94.1629C70.5683 105.929 70.4742 116.842 69.5683 127.49L69.5685 127.491Z" fill="#CDDDFF"/>
<path d="M105.793 5.50304C102.313 2.02962 97.6912 0.117354 92.7749 0.117354C87.8586 0.117354 83.2377 2.03092 79.7603 5.50564L78.0033 7.26398L76.2437 5.49799C72.7676 2.02457 68.1454 0.112305 63.2278 0.112305C58.3102 0.112305 53.6906 2.02588 50.2119 5.5006C43.0361 12.6803 43.0387 24.3588 50.2119 31.5323L76.0655 57.3833C76.5999 57.9177 77.3009 58.1836 78.0007 58.1836C78.7017 58.1836 79.4015 57.9177 79.9359 57.3833L105.793 31.5323C112.966 24.3614 112.966 12.6842 105.793 5.5032V5.50304ZM101.927 27.6643L78.0021 51.5828L54.0849 27.6643C49.0439 22.621 49.0439 14.4143 54.0849 9.36959C56.5278 6.92928 59.7761 5.58447 63.2303 5.58447C66.6845 5.58447 69.9355 6.92931 72.3757 9.36569L76.0654 13.0681C76.5782 13.5821 77.2741 13.8722 78.0006 13.8722H78.0019C78.7284 13.8722 79.4244 13.5834 79.9371 13.0694L83.6294 9.37448C86.0735 6.93416 89.318 5.58935 92.7748 5.58935C96.229 5.58935 99.48 6.9342 101.924 9.37187C106.964 14.4178 106.964 22.6245 101.927 27.664L101.927 27.6643Z" fill="#CDDDFF"/>
</svg>
