<svg xmlns="http://www.w3.org/2000/svg" width="373.317" height="324.769" viewBox="0 0 373.317 324.769">
    <defs>
        <style>
            .a,.b,.c,.d,.e,.f,.g,.h,.i{fill:url(#a);}.b{opacity:0.35;}.b,.c,.d,.e,.i{mix-blend-mode:multiply;}.b,.c,.d,.e,.h,.i{isolation:isolate;}.c{opacity:0.59;}.d{opacity:0.47;}.e,.h{opacity:0.41;}.f{opacity:0.23;}.g{opacity:0.46;}.h{mix-blend-mode:screen;}.i{opacity:0.39;}
        </style>
        <linearGradient id="a" x1="0.039" y1="0.5" x2="1.013" y2="0.5" gradientUnits="objectBoundingBox">
            <stop offset="0" stop-color="#e6f0ff"/>
            <stop offset="1" stop-color="#397ef5"/>
        </linearGradient>
    </defs>
    <g transform="translate(-137.304 -37.198)">
        <g transform="translate(137.304 37.198)">
            <g transform="translate(0 0)">
                <rect class="a" width="35.519" height="28.767" transform="translate(171.421 252.417)"/>
                <path class="b" d="M192.21,279.7c10.525,1.525,27.919,3.978,35.528,5.058V275.62H192.21Z"
                      transform="translate(-20.789 -23.203)"/>
                <path class="a"
                      d="M240.55,264.357s29.819,7.725,30.158,43.841c0,0,47.837-63.4-14.709-95.238C256,213,240.55,228.2,240.55,264.357Z"
                      transform="translate(-26.01 -16.435)"/>
                <path class="a"
                      d="M260.789,278.181c3.2-15.414,4.8-40.746,5.566-58.987A81.535,81.535,0,0,0,256,212.95s-15.449,15.244-15.449,51.4A42.727,42.727,0,0,1,260.789,278.181Z"
                      transform="translate(-26.01 -16.434)"/>
                <path class="a"
                      d="M246.708,99.235c-17.84-67.328-40.14-69.575-40.14-69.575s-22.3,2.221-40.14,69.575S178.462,240.58,183.377,249.09H229.76C234.675,240.58,264.548,166.563,246.708,99.235Z"
                      transform="translate(-17.397 3.363)"/>
                <path class="a"
                      d="M220.728,249.05h14.584c4.906-8.474,34.788-82.491,16.948-149.855S212.12,29.62,212.12,29.62,277.467,112.2,220.728,249.05Z"
                      transform="translate(-22.939 3.367)"/>
                <path class="a"
                      d="M178.575,111.606c14.682,0,26.867-4.558,30.97,4.094s14.218,18.17,19.124,18.17,16.8-7.662,23.879-2.676a169.432,169.432,0,0,0-5.156-31.969c-17.84-67.328-40.14-69.575-40.14-69.575s-22.3,2.221-40.14,69.575C167.1,99.234,163.866,111.606,178.575,111.606Z"
                      transform="translate(-18.045 3.364)"/>
                <path class="a"
                      d="M257.41,131.2c-.089-1.267-.187-2.533-.3-3.809,0-.232-.045-.473-.062-.714-.089-.99-.2-1.989-.3-2.979a10.537,10.537,0,0,0-.116-1.053q-.161-1.392-.348-2.783a7.376,7.376,0,0,0-.125-.981c-.161-1.213-.339-2.417-.535-3.63v-.062c-.2-1.231-.41-2.471-.633-3.7l-.187-1.017c-.169-.892-.339-1.784-.526-2.676-.08-.41-.169-.821-.259-1.231-.187-.892-.375-1.722-.571-2.578-.089-.375-.17-.749-.259-1.124-.294-1.213-.6-2.426-.892-3.639C234.45,31.9,212.15,29.65,212.15,29.65s28.9,36.572,31.559,101.268C248.436,129.482,253.61,128.527,257.41,131.2Z"
                      transform="translate(-22.943 3.364)"/>
                <circle class="a" cx="26.305" cy="26.305" r="26.305"
                        transform="translate(154.708 151.2) rotate(-67.07)"/>
                <circle class="a" cx="21.399" cy="21.399" r="21.399"
                        transform="matrix(0.099, -0.995, 0.995, 0.099, 165.774, 156.401)"/>
                <rect class="a" width="31.211" height="2.676" rx="0.96" transform="translate(173.58 189.995)"/>
                <rect class="a" width="31.211" height="2.676" rx="0.96" transform="translate(173.58 198.799)"/>
                <path class="a"
                      d="M175.06,247c4.255,13.567,8.322,22.844,9.874,25.529h46.384c1.552-2.676,5.62-11.962,9.874-25.529Z"
                      transform="translate(-18.937 -20.112)"/>
                <path class="a"
                      d="M236.354,272.529c1.552-2.676,5.62-11.962,9.874-25.529H231.189q-4.014,12.435-9.419,25.529Z"
                      transform="translate(-23.982 -20.112)"/>
                <path class="a" d="M232.5,53.764C220.016,30.75,209.312,29.68,209.312,29.68s-10.7,1.061-23.192,24.084Z"
                      transform="translate(-20.131 3.36)"/>
                <path class="a" d="M235.312,53.764C222.824,30.75,212.12,29.68,212.12,29.68S218.712,38,225.892,53.764Z"
                      transform="translate(-22.939 3.36)"/>
                <path class="a"
                      d="M226.6,307.87H191.107s-7.734,4.094-9.107,10.472h53.743C234.369,311.964,226.6,307.87,226.6,307.87Z"
                      transform="translate(-19.686 -26.686)"/>
                <path class="a"
                      d="M239.882,268.266c-.642,1.418-1.971,2.2-2.97,1.784s-1.276-1.971-.633-3.39,1.971-2.2,2.961-1.784S240.524,266.848,239.882,268.266Z"
                      transform="translate(-25.511 -22.03)"/>
                <path class="a"
                      d="M338.578,307.946H296.343a1.7,1.7,0,0,1-1.713-1.713h0a1.7,1.7,0,0,1,1.713-1.7h42.236a1.7,1.7,0,0,1,1.713,1.7h0a1.7,1.7,0,0,1-1.713,1.713Z"
                      transform="translate(-31.851 -26.325)"/>
                <path class="a"
                      d="M327.386,299.09a8.479,8.479,0,0,1,1.284,3.14c0,1.142-2.676,2-6.244,1.713s-5.566.428-5.851-1,1.142-1.855,2.426-2.569a8.172,8.172,0,0,1,2.819-.892Z"
                      transform="translate(-34.217 -25.738)"/>
                <path class="a"
                      d="M314.569,299.41a8.028,8.028,0,0,1,1.142,3c0,1.142-2.676,2-6.244,1.713s-5.566.428-5.852-1,1.142-1.855,2.426-2.569a12.861,12.861,0,0,1,3.711-1Z"
                      transform="translate(-32.818 -25.772)"/>
                <ellipse class="a" cx="6.85" cy="8.349" rx="6.85" ry="8.349" transform="translate(273.831 166.081)"/>
                <path class="a" d="M312.52,200.241s.714-.41.892-3.1l5.95-2.426a12.749,12.749,0,0,0,1.615,4.71Z"
                      transform="translate(-33.783 -14.465)"/>
                <path class="a" d="M329.574,247.777s-3.925,18.188-2.069,45.732l-5.6.428s-3.961-33-4.1-46.517Z"
                      transform="translate(-34.354 -20.157)"/>
                <path class="a"
                      d="M307.227,247.531s-1.57,24.976,2.854,46.384l4.852-.143s.83-33.45,4.977-45.126C319.911,248.637,309.564,246.184,307.227,247.531Z"
                      transform="translate(-33.182 -20.126)"/>
                <path class="a"
                      d="M317.173,204.27c-2.676-1.891-5.539-.384-11.855,3.024-5.263,2.828-11.6,1.231-13.585.607h0a2.507,2.507,0,1,0-1.017,2c6.244,3.862,17.679,4.808,23.477,1.508S319.866,206.161,317.173,204.27Z"
                      transform="translate(-30.997 -15.408)"/>
                <path class="a"
                      d="M315.1,211.4c5.887-3.336,5.673-5.236,2.979-7.136s-5.539-.383-11.855,3.024c-3.711,1.989-7.948,1.784-10.829,1.267h0s-.169,1.864-.268,3C301.534,213.947,310.267,214.143,315.1,211.4Z"
                      transform="translate(-31.905 -15.406)"/>
                <rect class="a" width="1.142" height="80.047" transform="translate(230.906 126.795) rotate(-21.66)"/>
                <rect class="a" width="11.025" height="3.729" rx="1.44"
                      transform="translate(225.403 126.298) rotate(-21.67)"/>
                <path class="a" d="M262.145,125.44l-11.855,4.71,1.829,4.612,11.855-4.71a2.5,2.5,0,0,0-1.829-4.612Z"
                      transform="translate(-27.062 -6.973)"/>
                <path class="a" d="M253.116,132.2a2.248,2.248,0,1,1-3-1.481,2.355,2.355,0,0,1,3,1.481Z"
                      transform="translate(-26.891 -7.538)"/>
                <path class="a"
                      d="M307.209,242.4a89.9,89.9,0,0,0,.642-11.774c-.214-4.71-2.141-18.2-.214-23.326s3.639-7.921,10.062-7.707,10.918,5.138,10.918,13.05-1.5,14.771-1.07,19.267.892,10.7.892,10.7S314.916,244.964,307.209,242.4Z"
                      transform="translate(-33.164 -14.99)"/>
                <path class="c"
                      d="M307.478,208.7a22.812,22.812,0,0,0-.678,5.7,21.4,21.4,0,0,0,4.371-1.151,5.129,5.129,0,0,0,3.488-4.808C313.8,207.952,310.056,208.353,307.478,208.7Z"
                      transform="translate(-33.165 -15.923)"/>
                <path class="a"
                      d="M310.975,204.1c-1.5-3.425-5.138-3.639-13.264-4.068-7-.375-12.327-6.03-13.674-7.6a3.06,3.06,0,0,0,.4-1.5,3.1,3.1,0,1,0-3.1,3.1,2.965,2.965,0,0,0,.7-.089c3.809,7.439,14.272,15.075,21.854,15.307S312.474,207.516,310.975,204.1Z"
                      transform="translate(-30.08 -13.721)"/>
                <path class="a"
                      d="M307.975,178.954c-.116.321-.58,1.962.464,2.908a6.041,6.041,0,0,1,2.747.731,11.848,11.848,0,0,0,1.588,1.124s1.2-1.445,2.587-.7,1.606,1.392.107,2.569-1.5,2.034-1.5,2.034a7.8,7.8,0,0,0,.214,3.746,10.339,10.339,0,0,0,2.89,3.639c.892.535,1.606.428,2.783-1.177s4.282-5.566,4.46-8.349.321-5.673-1.606-6.743a35.48,35.48,0,0,0-3.853-1.784s-3-2.034-5.138-1.927S308.814,176.6,307.975,178.954Z"
                      transform="translate(-33.271 -12.338)"/>
                <path class="a" d="M299.56,308.36,295.43,328.2l3.568-.143,3.853-19.7Z"
                      transform="translate(-31.937 -26.739)"/>
                <path class="a" d="M339.182,308.36l4.139,19.838-3.568-.143-3.853-19.7Z"
                      transform="translate(-36.308 -26.739)"/>
                <path class="a"
                      d="M298.471,200.93c-4.5-.241-8.313-2.676-10.82-4.79l-2.382,2.5c4.826,6.039,13.112,11.319,19.374,11.516,7.68.232,8.59-1.739,7.091-5.156S306.6,201.367,298.471,200.93Z"
                      transform="translate(-30.84 -14.619)"/>
                <path class="a"
                      d="M5.828,291.98s-1.713,2.284-2.257,3.283-1.142,3.283-2.283,2.854-1.855-2.569-.571-6.708,2-6.244,3.425-6.565,3,1.026,3,3A13.542,13.542,0,0,1,5.828,291.98Z"
                      transform="translate(-0.032 -24.194)"/>
                <path class="a"
                      d="M55.142,323.862a5.352,5.352,0,0,0-1.427,2.676c-.143,1.427,0,2,2.141,2.426s9.553,1.57,10.7,1.57,2.141-1,1.427-2-7.591-3.568-8.269-3.711C59.709,324.861,56.257,323.22,55.142,323.862Z"
                      transform="translate(-5.826 -28.397)"/>
                <path class="a" d="M36.5,278.61s-9.419,10.847-28.651,8.563L6.56,291.312s29.391,8.563,42.093-6.993Z"
                      transform="translate(-0.737 -23.526)"/>
                <path class="a"
                      d="M40.12,278.312a22.745,22.745,0,0,0,4,9.134c3.14,4,14.272,12.131,9.562,31.22l4.567,1.026s7.7-16.127,3.844-28.677-6.842-15.164-6.842-15.164S43.171,276.555,40.12,278.312Z"
                      transform="translate(-4.362 -23.228)"/>
                <path class="a"
                      d="M59.616,218.406c0,5.352-3.613,9.7-8.028,9.7s-8.028-4.344-8.028-9.7,3.613-9.7,8.028-9.7S59.616,213.054,59.616,218.406Z"
                      transform="translate(-4.734 -15.976)"/>
                <path class="a"
                      d="M57.465,211.807,55.2,211a10.366,10.366,0,0,1-2.283,1.142,11.6,11.6,0,0,0-2.168.963l-.116,1.891s-2.426-1.713-3.425-.714-.143,3.568,1.284,4.71a12.141,12.141,0,0,1-.892,3.568,10.133,10.133,0,0,0-.785,3.327s-.892.383-2.783-.892-4.139-6.708-4.852-8.849-1.57-4.46.285-6.85a10.008,10.008,0,0,1,3.568-3.131s2.284-3.568,3.711-4,5.138.428,6.422-.143,2.426-1.142,2.426-1.142a3.889,3.889,0,0,1,2.069,3.416c-.143,2.283-.571,2.854.143,4.139S57.465,210.478,57.465,211.807Z"
                      transform="translate(-4.17 -15.13)"/>
                <path class="a"
                      d="M47.733,228.86a10.82,10.82,0,0,1-1.213,3.952l6.77.83a30.25,30.25,0,0,1,1.338-4C55.511,227.531,47.733,228.86,47.733,228.86Z"
                      transform="translate(-5.053 -18.108)"/>
                <path class="a"
                      d="M45.459,233.287s-5.566,4-7.421,8.42-1.57,10.989-.428,15.69,2.141,16.27,2.141,16.27a69.385,69.385,0,0,0,15.164-2.426s-1.891-9.419-.464-16.27S56.877,242.849,56.02,239,50.026,231.574,45.459,233.287Z"
                      transform="translate(-3.993 -18.583)"/>
                <path class="d"
                      d="M52.265,239.78l-5.4.972s-.384,5.236,2.614,8.661a40.51,40.51,0,0,0,6.244,5.352,75.458,75.458,0,0,0,1.65-10.508C55.057,242.251,52.265,239.78,52.265,239.78Z"
                      transform="translate(-5.089 -19.332)"/>
                <path class="a" d="M53.4,238.265s10.552,2,17.974-.285l.892,5s-10.133,3.711-17.974,3.283Z"
                      transform="translate(-5.796 -19.138)"/>
                <path class="a"
                      d="M114.445,260.1s-27.161,14.531-18.991,49.711c0,0-61.4-50.38-8.108-96.032C87.364,213.78,105.944,224.957,114.445,260.1Z"
                      transform="translate(-7.113 -16.524)"/>
                <path class="a"
                      d="M83.224,250.209a3.836,3.836,0,0,0-3.39,2.052,40.024,40.024,0,0,1-24.36-16.127s-2.5-3.051-6.636.517-.571,8.42-.571,8.42c10.213,11.783,28.544,10.954,31.541,10.7a3.844,3.844,0,1,0,3.416-5.593Z"
                      transform="translate(-5.088 -18.807)"/>
                <path class="a" d="M394.85,256.3a4.059,4.059,0,0,0,.642-3.1l5.12-2.194-.143,6.485Z"
                      transform="translate(-42.676 -20.544)"/>
                <path class="a" d="M395.62,254.283l4.968,1.57L400.7,251l-4.13,1.784Z"
                      transform="translate(-42.759 -20.544)"/>
                <path class="a"
                      d="M400.553,242.856c1.052,4.46-1.088,8.831-4.772,9.687s-7.52-2.078-8.563-6.574,1.088-8.822,4.772-9.687S399.483,238.369,400.553,242.856Z"
                      transform="translate(-41.823 -18.938)"/>
                <path class="a"
                      d="M408.571,348.988a3.461,3.461,0,0,1,1.07,2.4c-.107,1.284.107,1.5-1.927,1.918s-8.135.749-8.92,0-1.169-1.383.214-2.239a23.577,23.577,0,0,1,5.173-1.641S407.866,348.6,408.571,348.988Z"
                      transform="translate(-43.025 -31.116)"/>
                <path class="a"
                      d="M390.743,349.88a5.816,5.816,0,0,1,1.445,2.819c.321,1.7-.892,2.346-4.71,2.988s-8.242.214-8.349-.749,1.784-2.239,2.89-2.56,3.39-1.3,3.39-1.3Z"
                      transform="translate(-40.977 -31.224)"/>
                <path class="a"
                      d="M399.743,295s1.311,18.616,1.311,24.084c0,0,5.111,15.886,6.636,24.164a15.454,15.454,0,0,1-4.353.437s-7.618-16.654-9.58-23.843-3.818-23.513-3.818-23.513Z"
                      transform="translate(-42.145 -25.296)"/>
                <path class="a"
                      d="M398.818,295.293a31.549,31.549,0,0,1-2.613,11.212c-2.614,6.1-5.013,10.775-5.771,12.3s-2.069,14.272.544,25.145a8.314,8.314,0,0,1-5.352,1.2s-3.488-23.834-4.139-27.429,1.784-17.956,2.176-19.267a10.072,10.072,0,0,0,.437-2.783S397.328,294.437,398.818,295.293Z"
                      transform="translate(-41.22 -25.295)"/>
                <path class="a"
                      d="M272.226,335.284c-3.889,0-7.885-.241-11.819-.473a124.126,124.126,0,0,0-13.862-.339c-7.591.428-11.525-1.713-11.971-3.871-.277-1.383.776-2.676,2.819-3.381,3.068-1.106,9.7-.6,16.734-.054,5.272.41,10.7.83,14.183.455,2.738-.294,4.344-1.044,4.4-2.06.054-1.16-1.855-2.631-4.014-3.086a33.665,33.665,0,0,0-5.664-.285c-4.986,0-11.186,0-14.62-2.569-2.926-2.168-2.185-5.825-1.053-11.355a65.866,65.866,0,0,0,1.739-16.8,33.334,33.334,0,0,0-11.186-23.442l.526-.678a34.226,34.226,0,0,1,11.516,24.084,66.77,66.77,0,0,1-1.784,17c-1.061,5.209-1.784,8.652.723,10.49,3.211,2.373,9.25,2.391,14.111,2.408a34.056,34.056,0,0,1,5.842.3c2.328.491,4.781,2.141,4.683,3.969-.053,1.062-.99,2.417-5.156,2.872-3.568.375-9.027-.045-14.334-.455-6.627-.517-13.487-1.044-16.386,0-1.606.58-2.453,1.472-2.266,2.4.375,1.829,4.389,3.568,11.087,3.193a125.709,125.709,0,0,1,13.942.339c8.626.517,17.545,1.044,24.922-.972,11.1-3.024,27.982-18.295,36.126-32.683,7.832-13.835,25.725-27.331,33.387-27.331h0v.892h0c-7.448,0-24.976,13.282-32.638,26.894-8.385,14.807-25.172,29.962-36.652,33.093A51.266,51.266,0,0,1,272.226,335.284Z"
                      transform="translate(-25.36 -22.31)"/>
                <path class="a"
                      d="M390.315,262.208c-.375-2.087-.812-4.567-2.052-3.854,0,0-5.843,5.495-8.028,7.778-.517.553-2.551,2.15-4.246,3.452a4.927,4.927,0,0,0-.633,0c-1.784,0-3.167.963-3.167,2.141s1.418,2.141,3.167,2.141,3.158-.954,3.158-2.141v-.053c2.391-1.5,7.207-4.576,7.653-4.861C383.723,268.336,390.69,264.269,390.315,262.208Z"
                      transform="translate(-40.228 -21.325)"/>
                <path class="a" d="M363.89,259.086l1.32-.116,1.855.589,5.281,14.281-1.267-.134Z"
                      transform="translate(-39.332 -21.405)"/>
                <path class="a" d="M368.841,272.649,363.89,259.1l2.087.651,5.477,14.985Z"
                      transform="translate(-39.332 -21.419)"/>
                <path class="a"
                      d="M382.368,290.325s-.214-6.244.892-8.777,2.355-5.78,1.285-9.419-3-5.352.214-9.205,4.924-5.771,8.777-5.985,8.34,1.061,7.912,6.627-2.569,11.132-3.211,16.948a29.641,29.641,0,0,0,.892,10.7S388.112,294.615,382.368,290.325Z"
                      transform="translate(-41.326 -21.183)"/>
                <path class="e"
                      d="M384.926,272.947a10.847,10.847,0,0,1-.116,5.066c6.369-2.631,12.042-7.841,14.227-11.186s1.409-6.333-.446-7.555-4.184,1.588-4.184,1.588A28.329,28.329,0,0,1,384.926,272.947Z"
                      transform="translate(-41.591 -21.404)"/>
                <rect class="a" width="14.04" height="2.408" transform="translate(331.748 251.106)"/>
                <path class="a"
                      d="M396.909,257.88c-1.73-1.392-4.308,1.177-4.308,1.177a28.9,28.9,0,0,1-18.125,14.272c-1.276.731-4.139.143-5.281-1s-2.569,1.284-2.426,2,1,2.426,3.568,3.425,5-1.57,5-1.57c8.563,0,18.036-6.663,21.292-10.7C399.148,262.3,398.64,259.28,396.909,257.88Z"
                      transform="translate(-39.642 -21.242)"/>
                <path class="a"
                      d="M389.052,233.789c-.134.312-2.783,2.141-3.1,4.71a14.935,14.935,0,0,0-.107,3.853l7.065-.535.535-2.462a35.686,35.686,0,0,1,1.07,4.068c0,.642.723,1.061.723,1.061a25.5,25.5,0,0,1,.669-3.737c.321-.749,1.606-1.713,2.346-.428s-.642,4.282-.642,4.282a32.589,32.589,0,0,1,1.472,4.353c0,.642-.642,5.352.41,6.244s2.721,5.869,2.078,10.793-1.784,10.811,5.887,14.022c0,0-3.96-6.244-1.927-11.132s4.175-5.245,2.783-9.955-2.783-7.056-2.141-9.517,1.5-8.67-.107-12.738a10.338,10.338,0,0,0-8.777-6.743C393.548,229.614,389.908,231.773,389.052,233.789Z"
                      transform="translate(-41.694 -18.265)"/>
                <circle class="a" cx="21.64" cy="21.64" r="21.64"
                        transform="matrix(0.377, -0.926, 0.926, 0.377, 88.021, 40.085)"/>
                <path class="f"
                      d="M140.754,4.86a6.887,6.887,0,0,0-.455,2.292c-.053,2.926-2.872.7-3.657,2.257s-3.131.7-4.005,3.14-3.309,2.087-5.744,2.266-2.614-1.4-6.966-2.961-2.783.892-7.662,2.266a7.368,7.368,0,0,1-4.54-.116A21.735,21.735,0,0,0,106.6,17.66a13.853,13.853,0,0,0,7.751-.241c6.1-1.784,3.836-1.561,6.966-.348s5.744,2.266,9.928,1.044,4.353-2.435,5.923-4.353,2.952-1.909,5.352-2.257a8.447,8.447,0,0,0,3.086-1.516,21.576,21.576,0,0,0-4.852-5.129Z"
                      transform="translate(-11.542 6.041)"/>
                <path class="f"
                      d="M149.4,22.835a21.514,21.514,0,0,0-1.347-7.065c-1.329,1.044-3.1,2.533-5.352,4.612-5.486,5.129-5.352,2.185-9.375,6.012s-5.655,1.784-11.846.357-2.676.892-7.074,3.006c-2.212,1.061-5.227,0-7.68-1.249a21.409,21.409,0,0,0,2.025,5.165c3.568.714,8.849.08,10.811-1.615,2.676-2.3,1.6-1.061,5.655.169s8.84-1.409,11.319-4.415,6.03-.972,9.018-2.676Z"
                      transform="translate(-11.556 4.863)"/>
                <path class="f"
                      d="M149.264,32.3a16.163,16.163,0,0,0-4.148,3.3c-2.676,3.06-4.067,2.346-10.963,2.721s-6.333,2.239-10.427,4.1c-1.784.821-4.576.8-7.136.535A21.586,21.586,0,0,0,122.9,45.9a12.488,12.488,0,0,0,4.879-2.926c2.426-2.6,5.967-2.052,10.062-2.052,3.452,0,5.887-.615,7.76-2.194A21.836,21.836,0,0,0,149.264,32.3Z"
                      transform="translate(-12.621 3.078)"/>
                <path class="g"
                      d="M147.457,31.01C129.564,25.195,118.913,12.734,114.551,5a21.64,21.64,0,1,0,32.906,26.01Z"
                      transform="translate(-11.484 6.026)"/>
                <circle class="a" cx="50.728" cy="50.728" r="50.728"
                        transform="translate(267.312 111.742) rotate(-87.37)"/>
                <path class="h"
                      d="M362.854,7.807,302.52,62.655a50.5,50.5,0,0,0,2.114,10.231l68.2-62a51.43,51.43,0,0,0-9.981-3.077ZM343.98,7.664,304.17,43.807a51.036,51.036,0,0,0-1.534,7.76L351.8,6.87a49.729,49.729,0,0,0-7.823.794Zm44.6,13.772a51.659,51.659,0,0,0-5.236-4.46L309.656,83.938a51.277,51.277,0,0,0,4,5.637ZM387.09,95.1A50.433,50.433,0,0,0,402.2,69.791l-41.718,37.99A50.433,50.433,0,0,0,387.108,95.1Zm-41.326,12.684,57.863-52.628a51.48,51.48,0,0,0-1.65-10.65l-66.623,60.6A50.709,50.709,0,0,0,345.764,107.781Zm-16.056-5.1L400.033,38.75a50.573,50.573,0,0,0-6.708-11.837L318.558,94.874a50.79,50.79,0,0,0,11.221,7.8Z"
                      transform="translate(-32.703 5.824)"/>
                <path class="g"
                      d="M357.26,108.541A50.71,50.71,0,0,0,374.208,9.53C393.3,45.415,368.49,91.013,357.26,108.541Z"
                      transform="translate(-38.616 5.537)"/>
                <circle class="a" cx="12.122" cy="12.122" r="12.122"
                        transform="translate(32.03 108.648) rotate(-22.68)"/>
                <path class="i"
                      d="M56.007,132.441a12.024,12.024,0,0,0,4.977-3.122c-4.674-1.124-14.932-4.737-18.669-15.369a12.131,12.131,0,0,0,13.692,18.491Z"
                      transform="translate(-4.362 -5.741)"/>
                <path class="a"
                      d="M62.991,109.485h0q-2.328.7-4.844,1.552a12.958,12.958,0,0,1,1.151,1.169c1.588-.508,3.077-.892,4.46-1.284l.562-.143.169-.045c3.934-.946,6.529-1.106,6.886-.241.74,1.784-8.3,7.216-20.177,12.14s-22.121,7.475-22.853,5.7c-.419-1,2.221-3.131,6.708-5.682h0c.892-.526,1.936-1.079,3.015-1.632a11.2,11.2,0,0,1,0-1.641c-.892.455-1.784.892-2.676,1.356h0c-9.607,4.977-15.708,9.589-14.843,11.667,1.2,2.89,15.414-.25,31.746-7.029s28.606-14.6,27.4-17.5C78.922,105.935,72.232,106.711,62.991,109.485Z"
                      transform="translate(-2.239 -4.969)"/>
                <path class="a"
                      d="M179.382,343.275a13.265,13.265,0,0,0-.892,4.335c.143,1.588,6.244,1.873,6.931,1.008s-.723-5.352-.723-5.352S180.791,342.455,179.382,343.275Z"
                      transform="translate(-19.307 -30.471)"/>
                <path class="a"
                      d="M194.122,343.275a13.434,13.434,0,0,0-.892,4.335c.152,1.588,6.244,1.873,6.94,1.008s-.723-5.352-.723-5.352S195.531,342.455,194.122,343.275Z"
                      transform="translate(-20.899 -30.471)"/>
                <path class="a"
                      d="M198.967,285.526l-10.98.187a2.552,2.552,0,0,0-.419-.714l-11.462.633s-.954,4.567.2,12.229,2.025,16.9,2.025,16.9-.294,7.653-.143,10.4.892,11.846.892,11.846h5.352s1.445-18.839,1.445-21.488c0,0,1.436-9.5,2.292-16.823,1.124,6.485,3.211,15.8,3.211,15.8-.294,5.923.892,22.514.892,22.514h5.352c1.392-10.133,0-22.246,0-22.246a103.14,103.14,0,0,1,.722-11.275C199.02,297.72,198.967,285.526,198.967,285.526Z"
                      transform="translate(-19.009 -24.216)"/>
                <path class="a"
                      d="M143.519,247.993a4.121,4.121,0,0,0-2.444-.785c-2.025,0-3.675,1.365-3.675,3.042s1.65,3.051,3.675,3.051,3.675-1.365,3.675-3.051v-.285c2.961-.6,10.615-1.784,16.207.749l.892-4.924S151.021,244.443,143.519,247.993Z"
                      transform="translate(-14.869 -19.954)"/>
                <circle class="a" cx="21.399" cy="21.399" r="21.399" transform="translate(115.788 228.645)"/>
                <path class="a"
                      d="M151.241,249h-.963L129.86,269.418v.954a21.318,21.318,0,0,0,4.05,12.524l29.882-29.882A21.274,21.274,0,0,0,151.241,249Z"
                      transform="translate(-14.055 -20.328)"/>
                <path class="a"
                      d="M137.27,286.657A20.338,20.338,0,0,0,138.831,288l30.042-30.042c-.428-.535-.892-1.062-1.347-1.552Z"
                      transform="translate(-14.855 -21.128)"/>
                <path class="a"
                      d="M208.14,258.61l-4.531,3.568s2.507,1.9,2.364,4.5-6.761,8.875-6.761,8.875h.089a2.06,2.06,0,0,0-.482.624c-.607,1.329.428,3.1,2.31,3.96s3.9.482,4.46-.838-.33-2.89-2.007-3.791c2.15-2.176,6.708-7.011,7.261-9.437C211.61,262.945,208.14,258.61,208.14,258.61Z"
                      transform="translate(-21.484 -21.366)"/>
                <path class="a" d="M200.314,248.35l7.734,9.152a35.194,35.194,0,0,1-4.531,3.568L197.79,257.2Z"
                      transform="translate(-21.392 -20.258)"/>
                <path class="a"
                      d="M194.834,262.455c1.838-7.234,2.819-12.871,1.784-14.593s-7.136-3.568-8.26-3.72-6.708-.562-7.939-.1c-.134.045-.633.223-1.284.491,0,0-12.64,1.356-14.513,1.07l-.892,4.924,9.7,4.335h0a28.723,28.723,0,0,0,1.463,8.072c2.676,8.028.624,15.949-.089,18.259,0,0,14.6,1.945,22.826-.116C197.67,281.079,192.987,269.689,194.834,262.455Z"
                      transform="translate(-17.713 -19.769)"/>
                <ellipse class="a" cx="7.368" cy="8.884" rx="7.368" ry="8.884" transform="translate(161.975 205.712)"/>
                <path class="a"
                      d="M198.624,234.065c0,.794-.384,1.445-.892,1.445s-.892-.651-.892-1.445.384-1.445.892-1.445S198.624,233.262,198.624,234.065Z"
                      transform="translate(-21.289 -18.559)"/>
                <path class="a"
                      d="M190.381,220.864s7.921,2.569,5.093,11.114-2.828,11.007-4.852,14.183-3.755,11.123,2.453,11.6c0,0-4.219,4.014-8.519.892s-5.084-6.173-4.05-11.6,1.16-6.931.294-9.964-2.89-10.98,1.445-15.164S190.381,220.864,190.381,220.864Z"
                      transform="translate(-19.423 -17.168)"/>
            </g>
        </g>
    </g>
</svg>
