<?xml version="1.0" encoding="utf-8"?>
<!-- Generator: Adobe Illustrator 26.0.1, SVG Export Plug-In . SVG Version: 6.00 Build 0)  -->
<svg version="1.1" id="Calque_1" xmlns="http://www.w3.org/2000/svg" xmlns:xlink="http://www.w3.org/1999/xlink" x="0px" y="0px"
	 viewBox="0 0 322 423" style="enable-background:new 0 0 322 423;" xml:space="preserve">
<style type="text/css">
	.st0{fill:#E24937;}
	.st1{fill:#D34634;}
	.st2{fill:#FCEC86;}
	.st3{fill:#FFFFFF;}
	.st4{fill:#F3F3F3;}
	.st5{fill:#E4D77B;}
</style>
<g>
	<polygon class="st0" points="99.83,89.75 161.57,51.55 226.44,93.41 226.44,144.18 257.78,144.18 257.78,176.45 227.67,176.45 
		257.78,371.45 64.22,371.45 95.64,174.5 68.44,175.03 68.44,143.63 99.83,143.63 	"/>
	<polygon class="st1" points="99.83,89.75 161.57,51.55 159.21,371.45 64.22,371.45 95.64,174.5 68.44,175.03 68.44,143.63 
		99.83,143.63 	"/>
	<polygon class="st2" points="131.74,142.59 131.74,109.06 161,91.13 190.87,109.1 190.87,142.59 	"/>
	<polygon class="st3" points="118.14,254.03 199.76,225.25 207.08,272.34 111.34,305.3 	"/>
	<polygon class="st4" points="111.34,305.3 118.14,254.03 159.21,239.55 159.21,288.82 	"/>
	<polygon class="st5" points="131.74,142.59 131.74,109.06 161,91.13 161,142.59 	"/>
</g>
</svg>
