<?xml version="1.0" encoding="UTF-8"?>
<svg width="31px" height="31px" viewBox="0 0 31 31" version="1.1" xmlns="http://www.w3.org/2000/svg" xmlns:xlink="http://www.w3.org/1999/xlink">
    <!-- Generator: Sketch 55.2 (78181) - https://sketchapp.com -->
    <title>click</title>
    <desc>Created with Sketch.</desc>
    <g id="Screens" stroke="none" stroke-width="1" fill="none" fill-rule="evenodd">
        <g id="Analytics_Message_Match_Optimisation_V3" transform="translate(-359.000000, -565.000000)">
            <g id="Group-35" transform="translate(293.000000, 538.000000)">
                <g id="Group-12" transform="translate(14.000000, 27.000000)">
                    <g id="Group-20">
                        <g id="Group-13" transform="translate(52.000000, 0.000000)">
                            <g id="noun_performance_831861" transform="translate(5.000000, 9.000000)" fill="#BFCFE2" fill-rule="nonzero">
                                <path d="M20.7091566,0.297842277 C20.9377882,0.533888239 21.0406007,0.867564686 20.9853293,1.1941564 L20.2976593,5.46499486 C20.2268294,5.89718742 19.8939451,6.23586163 19.4691412,6.3079235 C19.4158419,6.31248453 19.3622603,6.31248453 19.308961,6.3079235 C19.0280633,6.30815236 18.758309,6.19615413 18.5577713,5.9960399 L17.7679173,5.19244793 L12.4819718,10.5815717 C12.2333483,10.8346519 11.8960643,10.9768421 11.5443655,10.9768421 C11.1926667,10.9768421 10.8553827,10.8346519 10.6067592,10.5815717 L7.92512226,7.85329268 L2.26358189,13.6048758 C1.74575622,14.1317081 0.906194926,14.1317081 0.388369254,13.6048758 C-0.129456418,13.0780435 -0.129456418,12.2238796 0.388369254,11.6970473 L6.98061163,4.99295482 C7.22923518,4.73987459 7.56651916,4.59768446 7.91821795,4.59768446 C8.26991673,4.59768446 8.60720071,4.73987459 8.85582427,4.99295482 L11.5374612,7.72123386 L15.8954664,3.2874292 L15.0973273,2.48102746 C14.8815699,2.26865719 14.7676057,1.97109563 14.7852522,1.66619644 C14.8172938,1.18948576 15.1670352,0.797613626 15.6303406,0.719306598 L19.8281657,0.0140563002 C19.8829079,0.00459437341 19.9383428,3.72558942e-06 19.9938693,3.72558942e-06 C20.2616049,-0.000727968885 20.5187509,0.106343721 20.7091566,0.297842277 Z" id="Shape"></path>
                            </g>
                        </g>
                    </g>
                </g>
            </g>
        </g>
    </g>
</svg>