<?xml version="1.0" encoding="UTF-8"?>
<svg width="24px" height="24px" viewBox="0 0 24 24" version="1.1" xmlns="http://www.w3.org/2000/svg" xmlns:xlink="http://www.w3.org/1999/xlink">
    <title>Edit</title>
    <g id="Icon-/-edit" stroke="none" stroke-width="1" fill="none" fill-rule="evenodd">
        <g id="noun_edit_1131426" transform="translate(5.000000, 5.000000)" fill="#231F20" fill-rule="nonzero">
            <path d="M13.5547451,2.28526304 L11.7024702,0.432988129 C11.1224369,-0.144329376 10.1848942,-0.144329376 9.60486089,0.432988129 L1.54071832,8.49713071 C1.36418128,8.67402146 1.2350834,8.8925597 1.16535664,9.13254687 L0.029458253,13.0578977 C-0.0457891484,13.3158888 0.0255601058,13.5943831 0.215588491,13.7844115 C0.405616876,13.9744399 0.684111226,14.0457891 0.942102317,13.9705417 L4.86745313,12.8346434 C5.1074403,12.7649166 5.32597854,12.6358187 5.50286929,12.4592817 L13.5547451,4.38532573 C14.1336925,3.8050084 14.1336925,2.86558038 13.5547451,2.28526304 Z M2.33314851,10.3862058 L3.60398084,11.6570381 L1.81549287,12.1771471 L2.33314851,10.3862058 Z M4.9435068,10.9210348 L3.06915179,9.04667982 L10.674519,1.47565944 L12.5267939,3.34510776 L4.9435068,10.9210348 Z" id="Shape"></path>
        </g>
    </g>
</svg>