<?xml version="1.0" encoding="UTF-8"?>
<svg width="24px" height="24px" viewBox="0 0 24 24" version="1.1" xmlns="http://www.w3.org/2000/svg" xmlns:xlink="http://www.w3.org/1999/xlink">
    <title>Filter</title>
    <g id="Icon-/-Filter" stroke="none" stroke-width="1" fill="none" fill-rule="evenodd">
        <path d="M12,14.8 C12.91826,14.8 13.698865,15.3893692 13.9841745,16.2104671 L14.0183653,16.2047096 L14.0183653,16.2047096 L14.1,16.2 L18.3,16.2 C18.6865995,16.2 19,16.5134005 19,16.9 C19,17.2589852 18.729772,17.5548549 18.3816347,17.5952904 L18.3,17.6 L14.1,17.6 C14.0604115,17.6 14.0215902,17.5967135 13.9837951,17.5903988 C13.698865,18.4106308 12.91826,19 12,19 C11.08174,19 10.301135,18.4106308 10.0158255,17.5895329 L9.9816347,17.5952904 L9.9816347,17.5952904 L9.9,17.6 L5.7,17.6 C5.3134005,17.6 5,17.2865995 5,16.9 C5,16.5410148 5.270228,16.2451451 5.6183653,16.2047096 L5.7,16.2 L9.9,16.2 C9.9395885,16.2 9.9784098,16.2032865 10.0162049,16.2096012 C10.301135,15.3893692 11.08174,14.8 12,14.8 Z M12,16.2 C11.6134005,16.2 11.3,16.5134005 11.3,16.9 C11.3,17.2865995 11.6134005,17.6 12,17.6 C12.3865995,17.6 12.7,17.2865995 12.7,16.9 C12.7,16.5134005 12.3865995,16.2 12,16.2 Z M7.1,9.9 C8.01826,9.9 8.798865,10.4893692 9.0841745,11.3104671 L9.1183653,11.3047096 L9.2,11.3 L18.3,11.3 C18.6865995,11.3 19,11.6134005 19,12 C19,12.3589852 18.729772,12.6548549 18.3816347,12.6952904 L18.3,12.7 L9.2,12.7 C9.1604115,12.7 9.1215902,12.6967135 9.0837951,12.6903988 C8.798865,13.5106308 8.01826,14.1 7.1,14.1 C5.9402022,14.1 5,13.1597978 5,12 C5,10.8402022 5.9402022,9.9 7.1,9.9 Z M7.1,11.3 C6.7134005,11.3 6.4,11.6134005 6.4,12 C6.4,12.3865995 6.7134005,12.7 7.1,12.7 C7.4865995,12.7 7.8,12.3865995 7.8,12 C7.8,11.6134005 7.4865995,11.3 7.1,11.3 Z M14.8,5 C15.71826,5 16.498865,5.5893692 16.7841745,6.4104671 L16.8183653,6.4047096 L16.8183653,6.4047096 L16.9,6.4 L18.3,6.4 C18.6865995,6.4 19,6.7134005 19,7.1 C19,7.4589852 18.729772,7.7548549 18.3816347,7.7952904 L18.3,7.8 L16.9,7.8 C16.8604115,7.8 16.8215902,7.7967135 16.7837951,7.7903988 C16.498865,8.6106308 15.71826,9.2 14.8,9.2 C13.88174,9.2 13.101135,8.6106308 12.8158255,7.7895329 L12.7816347,7.7952904 L12.7816347,7.7952904 L12.7,7.8 L5.7,7.8 C5.3134005,7.8 5,7.4865995 5,7.1 C5,6.7410148 5.270228,6.4451451 5.6183653,6.4047096 L5.7,6.4 L12.7,6.4 C12.7395885,6.4 12.7784098,6.4032865 12.8162049,6.4096012 C13.101135,5.5893692 13.88174,5 14.8,5 Z M14.8,6.4 C14.4134005,6.4 14.1,6.7134005 14.1,7.1 C14.1,7.4865995 14.4134005,7.8 14.8,7.8 C15.1865995,7.8 15.5,7.4865995 15.5,7.1 C15.5,6.7134005 15.1865995,6.4 14.8,6.4 Z" id="Shape" fill="#231F20" fill-rule="nonzero"></path>
    </g>
</svg>