<svg xmlns="http://www.w3.org/2000/svg" xmlns:xlink="http://www.w3.org/1999/xlink" width="24" height="24" viewBox="0 0 24 24">
    <g fill="none" fill-rule="evenodd">
        <g>
            <g>
                <g>
                    <g transform="translate(-284 -657) translate(258 54.5) translate(8 157) translate(10 440) translate(8 5.5) translate(4 9)">
                        <path fill="#FFF" fill-rule="nonzero" transform="matrix(-1 0 0 1 16 0)" id="nv8p9zllma" d="M1.014 2.093c-.558 0-1.014.41-1.014.91 0 .501.456.91 1.014.91h11.162v1.63c0 .41.547.61.861.32l2.819-2.54c.192-.183.192-.465 0-.647L13.037.136c-.314-.291-.861-.082-.861.319v1.638H1.014z"/>
                    </g>
                </g>
            </g>
        </g>
    </g>
</svg>
