<?xml version="1.0" encoding="UTF-8"?>
<svg width="31px" height="31px" viewBox="0 0 31 31" version="1.1" xmlns="http://www.w3.org/2000/svg" xmlns:xlink="http://www.w3.org/1999/xlink">
    <!-- Generator: Sketch 55.2 (78181) - https://sketchapp.com -->
    <title>Group 13</title>
    <desc>Created with Sketch.</desc>
    <g id="Screens" stroke="none" stroke-width="1" fill="none" fill-rule="evenodd">
        <g id="Analytics_Message_Match_Optimisation_V3" transform="translate(-360.000000, -179.000000)" fill="#397EF5">
            <g id="Group-37" transform="translate(293.000000, 152.000000)">
                <g id="Group-12" transform="translate(39.000000, 27.000000)">
                    <g id="Group-20">
                        <g id="Group-13" transform="translate(28.000000, 0.000000)">
                            <g id="channels" transform="translate(4.000000, 8.000000)" fill-rule="nonzero">
                                <path d="M17.3424838,6.01836881e-06 C17.2353663,-0.000382236904 17.1290754,0.0180178689 17.0288486,0.0543058819 L4.05154972,4.59522959 C3.69757031,4.73007212 3.33525835,4.84381147 2.96668044,4.93579887 C2.6202487,4.7875766 2.28963603,4.60739676 1.97950082,4.39779813 L0.863782174,3.706788 C0.743632697,3.62753924 0.603141722,3.58144501 0.45759889,3.57352176 C0.18509618,3.57352176 0,3.78576058 0,4.16088037 L0,10.577403 C0,10.9623944 0.205662422,11.1845048 0.514156056,11.1845048 C0.652666853,11.1810472 0.787649362,11.1418321 0.904914658,11.0709817 L1.95379301,10.4836231 C2.28070149,10.2902574 2.62481834,10.125085 2.98210512,9.9900444 C3.35144546,10.0791717 3.71534304,10.1879265 4.07211596,10.3158063 L5.41406327,10.7698987 L5.07472027,11.7274413 C5.00951315,11.9050037 4.97647213,12.0919769 4.97703062,12.2802494 C4.97095456,13.0156315 5.44916962,13.674564 6.16987267,13.9238664 L9.19311028,14.9110237 C9.37904587,14.9693458 9.57335648,14.9993244 9.76896506,14.9999346 C10.5487029,15.0064194 11.24412,14.5301421 11.4913878,13.8202148 L11.8255893,12.9317732 L17.0442733,14.6938491 C17.141975,14.7258274 17.2444036,14.7424933 17.3476253,14.7432069 C17.533963,14.737269 17.7094014,14.6574512 17.8321732,14.522756 C17.954945,14.3880609 18.0140663,14.210539 17.995462,14.0324537 L17.995462,0.705829719 C18.0174783,0.526719432 17.9587058,0.347114982 17.8339515,0.212265482 C17.7091971,0.0774159816 17.5303556,0.000178560631 17.3424838,6.01836881e-06 Z M2.9461142,8.51424419 C2.65304525,8.51424419 2.43195814,8.53892312 1.52190193,9.00782285 L1.52190193,5.88346991 C2.34969318,6.35730543 2.62733745,6.41653487 2.96668044,6.41653487 C3.17748443,6.41653487 3.35743905,6.41653487 4.58113046,5.98712143 L13.1109794,3.00097051 L13.1109794,11.8014781 L4.56570578,8.92391448 C3.34715592,8.51424419 3.1672013,8.51424419 2.96668044,8.51424419 L2.9461142,8.51424419 Z M10.0106184,13.3513151 C9.97362949,13.4517489 9.87479055,13.5189579 9.7638235,13.5191318 L9.68670009,13.5191318 L6.65832092,12.5319745 C6.55464956,12.4952682 6.48518115,12.4011202 6.48350786,12.2950568 L6.48350786,12.2160842 L6.8177093,11.2733489 L10.3139705,12.4530019 L10.0106184,13.3513151 Z M16.4529938,12.9268374 L14.6534476,12.3394788 L14.6534476,2.46790555 L16.4529938,1.83118907 L16.4529938,12.9268374 Z" id="Shape"></path>
                                <path d="M22.321267,7 L20.678733,7 C20.3038791,7 20,7.22385763 20,7.5 C20,7.77614237 20.3038791,8 20.678733,8 L22.321267,8 C22.6961209,8 23,7.77614237 23,7.5 C23,7.22385763 22.6961209,7 22.321267,7 L22.321267,7 Z" id="Path" transform="translate(21.500000, 7.500000) scale(1, -1) translate(-21.500000, -7.500000) "></path>
                                <path d="M21.5628955,12.7387693 L20.2830265,12.113602 C20.0302319,11.9757152 19.7045118,11.9623773 19.4359524,12.078915 C19.1673931,12.1954527 18.9997591,12.422875 19,12.6703539 C19.0002414,12.9178328 19.1683184,13.145039 19.4371045,13.2612307 L20.7169735,13.886398 C20.9697681,14.0242848 21.2954882,14.0376227 21.5640476,13.921085 C21.8326069,13.8045473 22.0002409,13.577125 22,13.3296461 C21.9997586,13.0821672 21.8316816,12.854961 21.5628955,12.7387693 L21.5628955,12.7387693 Z" id="Path"></path>
                                <path d="M20.3096803,2.86050762 L21.569681,2.24392053 C21.8342946,2.12932355 21.9997623,1.90523575 22,1.66115344 C22.0002371,1.41707113 21.8352055,1.19277012 21.5708152,1.07783187 C21.3064248,0.96289362 20.9857611,0.976048537 20.7368908,1.1120428 L19.4768901,1.73743828 C19.1918585,1.84242854 19.0063594,2.07154902 19.0001602,2.32627453 C18.9939609,2.58100004 19.1681664,2.81592705 19.4478658,2.93003349 C19.7275653,3.04413993 20.0629035,3.01708691 20.3096803,2.86050762 Z" id="Path"></path>
                            </g>
                        </g>
                    </g>
                </g>
            </g>
        </g>
    </g>
</svg>