<?xml version="1.0" encoding="UTF-8"?>
<svg width="24px" height="24px" viewBox="0 0 24 24" version="1.1" xmlns="http://www.w3.org/2000/svg" xmlns:xlink="http://www.w3.org/1999/xlink">
    <title>Icon / Move</title>
    <g id="Icon-/-Move" stroke="none" stroke-width="1" fill="none" fill-rule="evenodd">
        <g id="noun_Move_1364476" transform="translate(5.000000, 5.000000)" fill="#231F20" fill-rule="nonzero">
            <path d="M14.0820432,6.95420328 L14.0041092,6.97900044 L14.0767295,6.93649102 C14.0719878,6.91783355 14.0660719,6.89949434 14.0590172,6.88158302 C14.0516203,6.86463128 14.0433433,6.84807731 14.0342201,6.83198869 C14.0263662,6.81551112 14.0174928,6.79953912 14.0076517,6.78416559 L13.9828545,6.7505123 L13.9686847,6.74165617 L13.94743,6.71508778 L11.6607773,4.27433848 C11.5218782,4.12658013 11.3147019,4.06414761 11.1172898,4.11055865 C10.9198777,4.15696969 10.7622215,4.30517334 10.7037086,4.49934274 C10.6451957,4.69351213 10.6947157,4.9041483 10.8336148,5.05190665 L12.222256,6.52733783 L7.66312047,6.52733783 L7.66312047,1.96997357 L9.13855165,3.35861468 C9.37029242,3.56435364 9.72232311,3.5534741 9.94091699,3.33381752 C10.1551154,3.10520594 10.1440265,2.74640048 9.91611983,2.53145218 L7.48422665,0.244799535 L7.45057336,0.223544824 L7.40275026,0.289080183 L7.43463233,0.211146243 L7.40629271,0.188120306 L7.36555452,0.165094369 L7.33013,0.237714632 L7.34784226,0.154467014 L7.31064651,0.136754755 L7.25928096,0.120813722 L7.23802625,0.198747662 L7.23802625,0.115500044 L7.20437296,0.106643914 C7.13242733,0.0926450444 7.0584578,0.0926450444 6.98651217,0.106643914 L6.95463011,0.115500044 L6.97942727,0.193433984 L6.93691785,0.120813722 L6.88378107,0.136754755 L6.84658533,0.154467014 L6.8855523,0.22531605 L6.82710184,0.163323143 L6.78636365,0.18634908 L6.7491679,0.214688695 L6.80053345,0.276681602 L6.742083,0.223544824 L6.71551461,0.244799535 L4.27476531,2.53145218 C4.12700695,2.67035136 4.06457443,2.87752763 4.11098547,3.07493971 C4.15739651,3.27235178 4.30560017,3.43000807 4.49976957,3.48852096 C4.69393896,3.54703386 4.90457513,3.49751386 5.05233348,3.35861468 L6.52776466,1.96997357 L6.52776466,6.52910906 L1.9704004,6.52910906 L3.35904151,5.05367788 C3.49794069,4.90591953 3.54746068,4.69528336 3.48894778,4.50111397 C3.43043489,4.30694458 3.27277861,4.15874092 3.07536653,4.11232988 C2.87795446,4.06591884 2.67077819,4.12835136 2.53187901,4.2761097 L0.245226364,6.70800288 L0.223971653,6.74165617 L0.289507011,6.78947927 L0.209801845,6.76113965 L0.185004683,6.79479295 C0.172770185,6.81428153 0.161537824,6.83438154 0.15135139,6.85501463 C0.14483114,6.86650454 0.138918909,6.878329 0.133639131,6.89043915 C0.126643457,6.90837154 0.120728767,6.92670708 0.115926872,6.94534715 L0.193860812,6.96660186 L0.110613194,6.96660186 C0.109909142,6.97721756 0.109909142,6.98786823 0.110613194,6.99848393 C0.0962972034,7.07039864 0.0962972034,7.14443 0.110613194,7.21634471 C0.109938952,7.22696137 0.109938952,7.23761012 0.110613194,7.24822678 L0.188547134,7.22342962 L0.115926872,7.26593904 C0.120654765,7.28460047 0.126570918,7.30294055 0.133639131,7.32084704 C0.138877984,7.33297628 0.14479131,7.34480293 0.15135139,7.35627156 L0.222200427,7.31730459 L0.16020752,7.37398382 C0.166999641,7.38861452 0.174689616,7.40281139 0.183233457,7.41649324 L0.208030619,7.45014653 L0.222200427,7.46963002 L0.243455138,7.49619841 L2.53187901,9.915693 C2.7504729,10.1353496 3.10250358,10.1462291 3.33424435,9.94049016 C3.56215104,9.72554187 3.57323995,9.36673641 3.35904151,9.13812482 L1.9704004,7.66269364 L6.52953589,7.66269364 L6.52953589,12.2218291 L5.05233348,10.833188 C4.90457513,10.6942888 4.69393896,10.6447688 4.49976957,10.7032817 C4.30560017,10.7617946 4.15739651,10.9194509 4.11098547,11.116863 C4.06457443,11.3142751 4.12700695,11.5214513 4.27476531,11.6603505 L6.70665848,13.9470032 L6.73499809,13.9700291 L6.78282119,13.9044937 L6.75093913,13.9824277 L6.78813487,14.0107673 L6.83241552,14.0355645 L6.86784004,13.9629442 L6.84835655,14.0444206 L6.88378107,14.0621329 L6.93691785,14.0798451 L6.95817256,14.0019112 L6.95817256,14.0851588 L6.99005463,14.0851588 C7.06193624,14.0998068 7.1360338,14.0998068 7.20791541,14.0851588 L7.23979748,14.0851588 L7.21322909,14.0036824 L7.25573851,14.0763027 L7.31064651,14.0585904 L7.34607103,14.0408781 L7.30710406,13.9700291 L7.36201207,14.0337932 L7.40629271,14.0089961 L7.44348846,13.9806565 L7.39212291,13.9186636 L7.45942949,13.9700291 L7.48599788,13.9487744 L9.91789105,11.6603505 C10.0656494,11.5214513 10.1280819,11.3142751 10.0816709,11.116863 C10.0352599,10.9194509 9.8870562,10.7617946 9.6928868,10.7032817 C9.49871741,10.6447688 9.28808123,10.6942888 9.14032288,10.833188 L7.66312047,12.2218291 L7.66312047,7.66269364 L12.222256,7.66269364 L10.8336148,9.13989605 C10.6194164,9.36850764 10.6305053,9.7273131 10.858412,9.94226139 C11.0901528,10.1480003 11.4421835,10.1371208 11.6607773,9.91746422 L13.94743,7.48379983 L13.9686847,7.45014653 L13.9031493,7.40232343 L13.9828545,7.43066305 L14.0076517,7.39700976 L14.0076517,7.39700976 C14.0161407,7.38329603 14.0238288,7.36910249 14.0306776,7.35450033 L13.9580574,7.31730459 L14.0395337,7.33501685 C14.0460455,7.3235224 14.0519575,7.31169839 14.057246,7.29959233 C14.064187,7.28224273 14.0701013,7.26449982 14.0749583,7.24645555 L14.0041092,7.23405697 L14.0873568,7.23405697 C14.0880609,7.22344128 14.0880609,7.2127906 14.0873568,7.20217491 C14.1016728,7.13026019 14.1016728,7.05622884 14.0873568,6.98431412 C14.0861979,6.9741787 14.0844234,6.96412318 14.0820432,6.95420328 Z" id="Path"></path>
        </g>
    </g>
</svg>