<?xml version="1.0" encoding="UTF-8"?>
<svg xmlns="http://www.w3.org/2000/svg" width="182" height="137" viewBox="0 0 182 137" fill="none">
   <path d="M156.372 0H25.8126C11.597 0 0 12.9063 0 28.6184V107.927C0 123.639 11.597 136.545 25.8126 136.545H156.185C170.401 136.545 181.998 123.639 181.998 107.927V28.6184C182.185 12.7193 170.588 0 156.372 0ZM25.8126 10.1006H156.185C164.789 10.1006 171.897 18.3307 171.897 28.6184V33.2946H10.2876V28.6184C10.2876 18.3307 17.2084 10.1006 25.8126 10.1006ZM156.372 126.257H25.8126C17.2084 126.257 10.1006 118.027 10.1006 107.74V43.5822H171.897V107.927C171.897 118.027 164.976 126.257 156.372 126.257Z" fill="#E5E7EB" />
   <path d="M109.985 27.8697C113.497 27.8697 116.345 25.0224 116.345 21.51C116.345 17.9977 113.497 15.1504 109.985 15.1504C106.473 15.1504 103.625 17.9977 103.625 21.51C103.625 25.0224 106.473 27.8697 109.985 27.8697Z" fill="#E5E7EB" />
   <path d="M129.625 27.8697C133.138 27.8697 135.985 25.0224 135.985 21.51C135.985 17.9977 133.138 15.1504 129.625 15.1504C126.113 15.1504 123.266 17.9977 123.266 21.51C123.266 25.0224 126.113 27.8697 129.625 27.8697Z" fill="#E5E7EB" />
   <path d="M150.386 27.8697C153.899 27.8697 156.746 25.0224 156.746 21.51C156.746 17.9977 153.899 15.1504 150.386 15.1504C146.874 15.1504 144.027 17.9977 144.027 21.51C144.027 25.0224 146.874 27.8697 150.386 27.8697Z" fill="#E5E7EB" />
   <path d="M81.366 63.7822L75.3805 69.7678L69.582 63.7822L64.7188 68.8325L70.5172 74.631L64.7188 80.4295L69.582 85.4798L75.3805 79.4943L81.366 85.4798L86.2293 80.4295L80.2437 74.631L86.2293 68.8325L81.366 63.7822Z" fill="#E5E7EB" />
   <path d="M117.467 68.8325L112.603 63.7822L106.805 69.7678L100.819 63.7822L95.9561 68.8325L101.942 74.631L95.9561 80.4295L100.819 85.4798L106.805 79.4943L112.603 85.4798L117.467 80.4295L111.668 74.631L117.467 68.8325Z" fill="#E5E7EB" />
   <path d="M115.784 97.6377H66.2158V104.558H115.784V97.6377Z" fill="#E5E7EB" />
</svg>
