<?xml version="1.0" encoding="UTF-8"?>
<svg width="24px" height="24px" viewBox="0 0 24 24" version="1.1" xmlns="http://www.w3.org/2000/svg" xmlns:xlink="http://www.w3.org/1999/xlink">
    <title>Replace</title>
    <g id="Icon-/-Replace" stroke="none" stroke-width="1" fill="none" fill-rule="evenodd">
        <g id="noun_replace_418805" transform="translate(5.000000, 5.000000)" fill="#231F20" fill-rule="nonzero">
            <g id="Group">
                <path d="M4.97489153,1.49333333 L6.46666667,1.49333333 L7.9584418,1.49333333 C9.19845814,1.49333333 10.2,2.49414123 10.2,3.73652974 L10.2,8.203125 L11.6933333,8.203125 L11.6933333,3.73652974 C11.6933333,1.66915082 10.0229584,0 7.9584418,0 L6.46666667,0 L4.97489153,0 L4.97489153,1.49333333 L4.97489153,1.49333333 Z M8.9584418,11.9466667 L7.46666667,11.9466667 L5.97489153,11.9466667 C4.73934968,11.9466667 3.73333333,10.9396581 3.73333333,9.706709 L3.73333333,5.97333333 L2.24,5.97333333 L2.24,9.706709 C2.24,11.7640739 3.91427473,13.44 5.97489153,13.44 L7.46666667,13.44 L8.9584418,13.44 L8.9584418,11.9466667 L8.9584418,11.9466667 Z" id="Shape"></path>
                <path d="M3.51463973,4.69869361 C3.22304827,4.40710213 2.75028507,4.40710213 2.45869361,4.69869361 L0.218693604,6.93869361 C-0.0728978675,7.23028507 -0.0728978675,7.70304827 0.218693604,7.99463973 C0.510285067,8.2862312 0.983048267,8.2862312 1.27463973,7.99463973 L2.98666667,6.34666667 L4.69869361,7.99463973 C4.99028507,8.2862312 5.46304827,8.2862312 5.75463973,7.99463973 C6.0462312,7.70304827 6.0462312,7.23028507 5.75463973,6.93869361 L3.51463973,4.69869361 Z" id="Path"></path>
                <path d="M10.9466667,7.09333333 L9.23463973,5.44536027 C8.94304827,5.1537688 8.47028507,5.1537688 8.17869361,5.44536027 C7.88710213,5.73695173 7.88710213,6.20971493 8.17869361,6.50130639 L10.4186936,8.74130639 C10.7102851,9.03289787 11.1830483,9.03289787 11.4746397,8.74130639 L13.7146397,6.50130639 C14.0062312,6.20971493 14.0062312,5.73695173 13.7146397,5.44536027 C13.4230483,5.1537688 12.9502851,5.1537688 12.6586936,5.44536027 L10.9466667,7.09333333 Z" id="Path"></path>
            </g>
        </g>
    </g>
</svg>